M48
INCH
T11C0.020
T23C0.035
T25C0.038
%
T11
X015300Y000785
X015300Y002285
X015300Y001785
X015300Y001285
X007800Y002285
X007800Y001785
X008300Y002285
X008300Y001785
X007800Y001285
X007800Y000785
X008300Y001285
X008300Y000785
X008800Y002285
X009300Y002285
X008800Y001785
X009300Y001785
X009300Y001285
X009300Y000785
X008800Y001285
X008800Y000785
X009800Y002285
X009800Y001785
X010300Y002285
X010300Y001785
X009800Y001285
X009800Y000785
X010300Y001285
X010300Y000785
X010800Y002285
X010800Y001785
X011300Y002285
X011300Y001785
X010800Y001285
X010800Y000785
X011300Y001285
X011300Y000785
X011800Y001785
X011800Y001285
X011800Y000785
X011800Y002285
X012300Y002285
X012800Y002285
X014300Y002285
X012300Y001785
X012300Y001285
X012300Y000785
X012800Y001785
X012800Y001285
X012800Y000785
X013300Y002285
X013800Y002285
X013300Y001785
X013300Y001285
X013300Y000785
X013800Y001785
X013800Y001285
X013800Y000785
X014300Y001785
X014300Y001285
X014300Y000785
X014800Y002285
X014800Y001785
X014800Y001285
X014800Y000785
X009300Y014285
X009300Y013785
X009300Y013285
X009300Y012785
X009300Y012285
X009300Y011785
X009300Y011285
X009300Y010785
X009300Y010285
X009300Y009785
X009300Y009285
X009800Y014785
X009800Y014285
X009800Y013785
X009800Y013285
X009800Y012785
X009800Y012285
X009800Y011785
X009800Y011285
X009800Y010785
X009800Y010285
X009800Y009785
X009800Y009285
X009800Y016785
X009800Y016285
X009800Y015785
X009800Y015285
X010300Y017285
X010300Y016785
X010300Y016285
X010300Y015785
X010300Y015285
X010300Y014785
X010300Y014285
X010300Y013785
X010300Y013285
X010300Y012785
X010300Y012285
X010300Y011785
X010300Y011285
X010300Y010785
X010300Y010285
X010300Y009785
X010300Y009285
X010800Y014285
X010800Y013785
X010800Y013285
X010800Y012785
X010800Y012285
X010800Y011785
X010800Y011285
X010800Y010785
X010800Y010285
X010800Y009785
X010800Y009285
X010800Y008785
X011300Y014785
X011300Y014285
X011300Y013785
X011300Y013285
X011300Y012785
X011300Y012285
X011300Y011785
X011300Y011285
X011300Y010785
X011300Y010285
X011300Y009785
X011300Y009285
X011300Y008785
X009300Y017785
X009300Y017285
X009300Y016785
X009300Y016285
X009300Y015785
X009300Y015285
X009300Y014785
X009300Y018285
X009800Y018285
X009800Y017785
X009800Y017285
X010300Y018285
X010300Y017785
X010800Y018285
X010800Y017785
X010800Y017285
X010800Y016785
X010800Y016285
X010800Y015785
X010800Y015285
X010800Y014785
X011300Y018285
X011300Y017785
X011300Y017285
X011300Y016785
X011300Y016285
X011300Y015785
X011300Y015285
X011800Y018285
X011800Y017785
X011800Y017285
X012300Y018285
X012300Y017785
X012800Y018285
X013300Y018285
X012300Y017285
X012800Y017285
X012800Y016785
X013300Y017285
X012800Y017785
X013300Y017785
X013300Y016785
X013300Y016285
X013300Y015785
X013300Y015285
X013800Y018285
X013800Y017785
X013800Y017285
X013800Y016785
X013800Y016285
X013800Y015785
X013800Y015285
X013800Y014785
X014300Y018285
X014300Y017785
X014300Y017285
X014300Y016785
X014800Y018285
X014800Y017785
X015300Y018285
X014300Y016285
X014300Y015785
X014300Y015285
X014300Y014785
X014800Y017285
X014800Y016785
X014800Y016285
X014800Y015785
X014800Y015285
X014800Y014785
X014800Y014285
X015300Y017785
X015300Y017285
X015300Y016785
X015300Y016285
X015300Y015785
X015300Y015285
X015300Y014785
X007800Y008285
X007800Y007785
X007800Y007285
X008300Y008285
X008300Y007785
X008300Y007285
X008800Y008285
X009300Y008285
X009300Y007785
X009300Y007285
X008800Y007785
X008800Y007285
X009300Y008785
X008300Y006785
X008800Y006785
X009300Y006785
X009800Y006785
X009800Y008785
X009800Y008285
X009800Y007785
X009800Y007285
X009800Y006285
X009800Y005785
X009800Y005285
X009800Y004785
X009800Y004285
X009800Y003785
X009800Y003285
X009800Y002785
X008300Y006285
X008800Y006285
X008800Y005785
X008800Y005285
X008800Y004785
X008800Y004285
X008800Y003785
X008800Y003285
X008800Y002785
X007800Y006785
X007800Y006285
X007800Y005785
X009300Y006285
X009300Y005785
X009300Y005285
X009300Y004785
X009300Y004285
X009300Y003785
X009300Y003285
X009300Y002785
X010800Y006285
X010800Y005785
X010800Y005285
X010800Y004785
X010800Y004285
X010800Y003785
X010800Y003285
X010800Y002785
X010300Y008785
X010300Y008285
X010300Y007785
X010300Y007285
X010300Y006785
X010300Y006285
X010300Y005785
X010300Y005285
X010300Y004785
X010300Y004285
X010300Y003785
X010300Y003285
X010300Y002785
X010800Y008285
X011300Y008285
X011300Y007785
X011800Y008285
X010800Y007785
X010800Y007285
X010800Y006785
X011800Y007785
X011800Y007285
X011800Y006785
X011300Y005285
X011300Y004785
X011300Y004285
X011300Y003785
X011300Y003285
X011300Y002785
X011800Y006285
X011800Y005785
X011800Y005285
X011800Y004785
X011800Y004285
X011800Y003785
X011800Y003285
X011800Y002785
X011300Y007285
X011300Y006785
X011300Y006285
X011300Y005785
X012300Y006785
X012300Y006285
X012300Y005785
X012300Y005285
X012300Y004785
X012300Y004285
X012300Y003785
X012300Y003285
X012300Y002785
X012800Y007285
X012800Y006785
X012800Y006285
X012800Y005785
X012800Y005285
X012800Y004785
X012800Y004285
X012800Y003785
X012800Y003285
X012800Y002785
X012300Y008785
X013300Y008785
X012300Y008285
X012300Y007785
X012300Y007285
X012800Y008785
X012800Y008285
X012800Y007785
X013300Y008285
X013800Y008785
X013800Y008285
X013800Y007785
X013800Y007285
X013300Y005785
X013300Y005285
X013300Y004785
X013300Y004285
X013300Y003785
X013300Y003285
X013300Y002785
X013300Y007785
X013300Y007285
X013300Y006785
X013300Y006285
X013800Y006785
X013800Y006285
X013800Y005785
X013800Y005285
X013800Y004785
X013800Y004285
X013800Y003785
X013800Y003285
X013800Y002785
X014300Y008285
X014300Y007785
X014300Y007285
X014300Y006785
X014300Y006285
X014300Y005785
X014300Y005285
X014300Y004785
X014300Y004285
X014300Y003785
X014300Y003285
X014300Y002785
X014300Y008785
X014800Y008785
X014800Y008285
X014800Y007785
X014800Y007285
X014800Y006785
X014800Y006285
X014800Y005785
X014800Y005285
X014800Y004785
X014800Y004285
X014800Y003785
X014800Y003285
X014800Y002785
X011800Y014785
X011800Y014285
X011800Y013785
X011800Y013285
X011800Y012785
X011800Y012285
X011800Y011785
X011800Y011285
X011800Y010785
X011800Y010285
X011800Y009785
X011800Y009285
X011800Y008785
X011800Y016785
X011800Y016285
X011800Y015785
X011800Y015285
X012300Y016785
X012300Y016285
X012300Y015785
X012300Y015285
X012300Y014785
X012300Y014285
X012300Y013785
X012300Y013285
X012300Y012785
X012300Y012285
X012300Y011785
X012300Y011285
X012300Y010785
X012300Y010285
X012300Y009785
X012300Y009285
X012800Y016285
X012800Y015785
X012800Y015285
X012800Y014785
X012800Y014285
X012800Y013785
X012800Y013285
X012800Y012785
X012800Y012285
X012800Y011785
X012800Y011285
X012800Y010785
X012800Y010285
X012800Y009785
X012800Y009285
X013300Y014785
X013300Y014285
X013300Y013785
X013300Y013285
X013300Y012785
X013300Y012285
X013300Y011785
X013300Y011285
X013300Y010785
X013300Y010285
X013300Y009785
X013300Y009285
X013800Y014285
X013800Y013785
X013800Y013285
X013800Y012785
X013800Y012285
X013800Y011785
X013800Y011285
X013800Y010785
X013800Y010285
X013800Y009785
X013800Y009285
X014300Y014285
X014300Y013785
X014300Y013285
X014300Y012785
X014300Y012285
X014300Y011785
X014300Y011285
X014300Y010785
X014300Y010285
X014300Y009785
X014300Y009285
X014800Y013785
X014800Y013285
X014800Y012785
X014800Y012285
X014800Y011785
X014800Y011285
X014800Y010785
X014800Y010285
X014800Y009785
X014800Y009285
X015300Y014285
X015300Y013785
X015300Y013285
X015300Y012785
X015300Y012285
X015300Y011785
X015300Y011285
X015300Y010785
X015300Y010285
X015300Y009785
X015300Y009285
X015300Y008785
X015300Y008285
X015300Y007785
X015300Y007285
X015300Y006785
X015300Y006285
X015300Y005785
X015300Y005285
X015300Y004785
X015300Y004285
X015300Y003785
X015300Y003285
X015300Y002785
X007800Y013785
X007800Y013285
X007800Y012785
X007800Y012285
X007800Y011785
X007800Y011285
X007800Y010785
X007800Y010285
X007800Y009785
X007800Y009285
X007800Y008785
X008300Y016785
X008300Y016285
X008300Y015785
X008300Y015285
X008300Y014785
X008300Y014285
X008300Y013785
X008300Y013285
X008300Y012785
X008300Y012285
X008300Y011785
X008300Y011285
X008300Y010785
X008300Y010285
X008300Y009785
X008300Y009285
X008300Y008785
X008800Y014285
X008800Y013785
X008800Y013285
X008800Y012785
X008800Y012285
X008800Y011785
X008800Y011285
X008800Y010785
X008800Y010285
X008800Y009785
X008800Y009285
X008800Y008785
X007800Y015785
X007800Y015285
X007800Y014785
X007800Y014285
X006889Y016220
X007800Y018285
X007800Y017785
X008300Y017785
X008300Y017285
X008300Y018285
X008800Y018285
X007007Y017559
X007800Y017285
X007800Y016785
X007800Y016285
X008800Y017785
X008800Y017285
X008800Y016785
X008800Y016285
X008800Y015785
X008800Y015285
X008800Y014785
X001750Y007051
X002050Y008151
X002050Y008651
X001750Y007551
X003661Y003976
X005100Y003551
X003400Y003251
X002450Y003201
X001950Y004751
X004800Y016751
X004800Y017251
X005400Y015401
X001800Y015051
X001150Y013801
X002350Y013151
X004250Y011501
X005500Y010001
X005500Y010501
X004250Y010501
X004250Y011051
X004900Y010001
X004900Y010501
X004900Y011051
X005500Y011051
X005500Y011601
X005500Y012101
X004900Y011601
X004900Y012101
X006000Y004751
X006000Y003851
X005866Y001299
X007800Y004785
X007800Y004285
X007800Y003785
X007800Y003285
X007800Y002785
X007800Y005285
X008300Y005285
X008300Y004785
X008300Y005785
X008300Y004285
X008300Y003785
X008300Y003285
X008300Y002785
T23
X005050Y008151
X005050Y009151
X005050Y007151
X004050Y008651
X004050Y013401
X004050Y015401
X004050Y014401
X004050Y016401
X004050Y009651
X005050Y012901
X005050Y014901
X005050Y015901
X005050Y013901
X005050Y006151
X004050Y006651
X004050Y007651
X006614Y015314
X001417Y001811
X001181Y018740
X002283Y018740
X003385Y018740
X004448Y018740
X005551Y018740
X002600Y009651
X003800Y012251
X005551Y001968
T25
X003750Y002701
X004750Y002701
X000750Y002701
X001750Y002701
X002750Y002701
M30
