M48
INCH
T11C0.020
T23C0.035
T36C0.039
%
T11
X006220Y017952
X006220Y017480
X006496Y017086
X008250Y017994
X008250Y017494
X008250Y016994
X008250Y016494
X008250Y015994
X008250Y015494
X008250Y014994
X006378Y020905
X007126Y020669
X007750Y018494
X007750Y017994
X007750Y017494
X007750Y016994
X007750Y016494
X007750Y015994
X007750Y015494
X007750Y014994
X007750Y018994
X008250Y018994
X008250Y018494
X008750Y018994
X008750Y018494
X008750Y017994
X008750Y017494
X008750Y016994
X008750Y016494
X008750Y015994
X008750Y015494
X008750Y014994
X007750Y014494
X007750Y020494
X007750Y019994
X008250Y019994
X008750Y019994
X008250Y020494
X008750Y020494
X007750Y019494
X008250Y019494
X008750Y019494
X009250Y019494
X009750Y019494
X010250Y019494
X009250Y019994
X009750Y019994
X010250Y019994
X009250Y020494
X009250Y018994
X009250Y018494
X009250Y017994
X009250Y017494
X009250Y016994
X009250Y016494
X010750Y020494
X011250Y020494
X011750Y020494
X012250Y020494
X012750Y020494
X010750Y019994
X011250Y019994
X011750Y019994
X012250Y019994
X012750Y019994
X012250Y019494
X012250Y018994
X012750Y019494
X012750Y018994
X010750Y019494
X011250Y019494
X011750Y019494
X011750Y018994
X011750Y018494
X011750Y017994
X010750Y018994
X011250Y018994
X011250Y018494
X011250Y017994
X010750Y018494
X010750Y017994
X010750Y017494
X011750Y017494
X011250Y017494
X012250Y017494
X013250Y020494
X013750Y020494
X013250Y019994
X013750Y019994
X013750Y019494
X013750Y018994
X014250Y020494
X014250Y019994
X014750Y020494
X014750Y019994
X015250Y020494
X015250Y019994
X014250Y019494
X014250Y018994
X014750Y019494
X014750Y018994
X015250Y019494
X015250Y018994
X013250Y019494
X013250Y018994
X012750Y017494
X013250Y017494
X014750Y018494
X014750Y017994
X015250Y018494
X015250Y017994
X015250Y017494
X014750Y017494
X013750Y017494
X014250Y017494
X009750Y020494
X009750Y018994
X009750Y018494
X009750Y017994
X009750Y017494
X009750Y016994
X009750Y016494
X009750Y015994
X009750Y015494
X009750Y014994
X009750Y014494
X009250Y015994
X009250Y015494
X009250Y014994
X009250Y014494
X008750Y014494
X008250Y014494
X010250Y020494
X010250Y018994
X010250Y018494
X010250Y017994
X010250Y017494
X010250Y016994
X010250Y016494
X010250Y015994
X010250Y015494
X010250Y014994
X010250Y014494
X012250Y018494
X012250Y017994
X012750Y018494
X012750Y017994
X013250Y018494
X013750Y018494
X014250Y018494
X013250Y017994
X013750Y017994
X014250Y017994
X001535Y016220
X001338Y015433
X001771Y015275
X000984Y016574
X002244Y014685
X001771Y014803
X001299Y013976
X002165Y013818
X003070Y017244
X002244Y015157
X004370Y007440
X003503Y007204
X001338Y008602
X002322Y007519
X002322Y006850
X006023Y004566
X002204Y003464
X006574Y004566
X005708Y006456
X007204Y006063
X006850Y006456
X000590Y003149
X000315Y013149
X000456Y012677
X000354Y006535
X001181Y011299
X001771Y011358
X001338Y009074
X002027Y009330
X002755Y013149
X005944Y010866
X005944Y011338
X005944Y011811
X005944Y012283
X005000Y012283
X005000Y012755
X005472Y012755
X005944Y012755
X005472Y011338
X005472Y011811
X005472Y012283
X004055Y010866
X004055Y011338
X004055Y011811
X004527Y012283
X004527Y010866
X004527Y011338
X004527Y011811
X005000Y010866
X005000Y011338
X005000Y011811
X005472Y010866
T23
X005035Y013362
X005035Y015362
X005035Y016362
X005035Y014362
X005035Y006472
X004035Y006972
X004035Y013862
X004035Y015862
X004035Y014862
X004035Y016862
X005035Y008472
X005035Y009472
X005035Y007472
X004035Y008972
X004035Y007972
X004035Y009972
X006535Y019370
X007126Y022992
X010472Y022992
X005787Y022992
X012007Y022992
X008858Y022992
X002637Y009999
X003976Y012913
T36
X004015Y001846
X004015Y000846
X003976Y022976
X003976Y023976
X003700Y004212
X004700Y004212
X000700Y004212
X001700Y004212
X002700Y004212
X008000Y013744
X008000Y012744
X008000Y011744
X008000Y010744
X008000Y009744
X008000Y008744
X008000Y007744
X008000Y006744
X008000Y005744
X008000Y004744
X008000Y003744
X011000Y016744
X013000Y016744
X015000Y016744
X014000Y016744
X015000Y003744
X014000Y003744
X015000Y004744
X014000Y004744
X014000Y005744
X013000Y003744
X013000Y004744
X012000Y004744
X011000Y004744
X012000Y003744
X015000Y005744
X015000Y006744
X015000Y007744
X015000Y008744
X015000Y009744
X015000Y010744
X015000Y011744
X015000Y012744
X014000Y012744
X015000Y013744
X014000Y013744
X015000Y014744
X015000Y015744
X014000Y014744
X014000Y015744
X014000Y006744
X014000Y007744
X014000Y008744
X014000Y009744
X014000Y010744
X014000Y011744
X013000Y006744
X013000Y007744
X013000Y008744
X013000Y009744
X013000Y010744
X013000Y011744
X013000Y012744
X013000Y013744
X013000Y014744
X013000Y015744
X013000Y005744
X012000Y005744
X012000Y006744
X012000Y007744
X012000Y008744
X012000Y009744
X012000Y010744
X012000Y011744
X012000Y012744
X012000Y013744
X011000Y003744
X011000Y005744
X011000Y006744
X011000Y007744
X011000Y008744
X011000Y009744
X011000Y010744
X011000Y011744
X011000Y012744
X011000Y015744
X011000Y014744
X009000Y013744
X009000Y012744
X009000Y011744
X009000Y010744
X009000Y009744
X009000Y008744
X009000Y007744
X009000Y006744
X009000Y005744
X009000Y004744
X009000Y003744
X011000Y013744
X010000Y013744
X010000Y012744
X010000Y011744
X010000Y010744
X010000Y009744
X010000Y008744
X010000Y007744
X010000Y006744
X010000Y005744
X010000Y004744
X010000Y003744
X012000Y016744
X012000Y015744
X012000Y014744
M30
