G04 start of page 2 for group 0 idx 0 *
G04 Title: (unknown), component *
G04 Creator: pcb 1.99z *
G04 CreationDate: Tue 27 Apr 2010 23:23:43 GMT UTC *
G04 For: richard *
G04 Format: Gerber/RS-274X *
G04 PCB-Dimensions: 157480 196850 *
G04 PCB-Coordinate-Origin: lower left *
%MOIN*%
%FSLAX25Y25*%
%LNFRONT*%
%ADD11C,0.0200*%
%ADD12C,0.0100*%
%ADD13C,0.0400*%
%ADD14C,0.0250*%
%ADD15C,0.0079*%
%ADD16C,0.0600*%
%ADD17C,0.0360*%
%ADD18C,0.0700*%
%ADD19R,0.0530X0.0530*%
%ADD20R,0.0394X0.0394*%
%ADD21R,0.0295X0.0295*%
%ADD22R,0.0600X0.0600*%
%ADD23C,0.0350*%
%ADD24C,0.1280*%
%ADD25C,0.0380*%
%ADD26C,0.0197*%
G54D11*G36*
X51829Y38597D02*X51501Y38676D01*
X51000Y38715D01*
X50499Y38676D01*
X50011Y38558D01*
X49547Y38366D01*
X49119Y38104D01*
X48737Y37778D01*
X48461Y37455D01*
X48452Y39208D01*
X48386Y39481D01*
X48289Y39715D01*
X48386Y39949D01*
X48452Y40222D01*
X48474Y40502D01*
X48452Y44720D01*
X48386Y44993D01*
X48279Y45252D01*
X48133Y45491D01*
X47950Y45704D01*
X47737Y45887D01*
X47498Y46033D01*
X47239Y46140D01*
X46966Y46206D01*
X46686Y46228D01*
X40500Y46206D01*
X40227Y46140D01*
X39968Y46033D01*
X39729Y45887D01*
X39516Y45704D01*
X39333Y45491D01*
X39187Y45252D01*
X39080Y44993D01*
X39014Y44720D01*
X38992Y44440D01*
X39005Y41876D01*
X38877Y42026D01*
X38495Y42352D01*
X38095Y42597D01*
X37999Y58005D01*
X38000Y58016D01*
X37988Y58167D01*
X37981Y58252D01*
X37980Y58259D01*
X37926Y58479D01*
X37924Y58487D01*
X37871Y58612D01*
X37836Y58697D01*
X37833Y58702D01*
X37832Y58704D01*
X37759Y58822D01*
X37713Y58897D01*
X37711Y58900D01*
X37708Y58904D01*
X37656Y58964D01*
X37560Y59076D01*
X20067Y76569D01*
X20061Y76576D01*
X19882Y76729D01*
X19744Y76813D01*
X19603Y77043D01*
X19338Y77353D01*
X19028Y77618D01*
X18680Y77832D01*
X18303Y77988D01*
X17907Y78083D01*
X17500Y78115D01*
X17093Y78083D01*
X16697Y77988D01*
X16320Y77832D01*
X15972Y77618D01*
X15662Y77353D01*
X15397Y77043D01*
X15183Y76695D01*
X15027Y76318D01*
X14932Y75922D01*
X14900Y75515D01*
X14932Y75108D01*
X15027Y74712D01*
X15183Y74335D01*
X15397Y73987D01*
X15662Y73677D01*
X15972Y73412D01*
X16320Y73198D01*
X16502Y73123D01*
X16229Y73010D01*
X15854Y72780D01*
X15520Y72495D01*
X15235Y72161D01*
X15005Y71786D01*
X14837Y71380D01*
X14734Y70953D01*
X14700Y70515D01*
X14734Y70077D01*
X14774Y69911D01*
X4439Y59576D01*
X4286Y59397D01*
X4163Y59196D01*
X4072Y58979D01*
X4017Y58750D01*
X3999Y58515D01*
Y45848D01*
X3300Y45845D01*
X3056Y45787D01*
X2824Y45691D01*
X2610Y45559D01*
X2419Y45396D01*
X2256Y45205D01*
X2124Y44991D01*
X2028Y44759D01*
X1970Y44515D01*
X1950Y44265D01*
X1970Y35515D01*
X2028Y35271D01*
X2124Y35039D01*
X2256Y34825D01*
X2419Y34634D01*
X2573Y34502D01*
X1943Y33872D01*
X1845Y33756D01*
X1791Y33693D01*
X1669Y33493D01*
X1579Y33277D01*
X1524Y33049D01*
X1506Y32815D01*
Y22515D01*
X1524Y22281D01*
X1579Y22053D01*
X1669Y21837D01*
X1791Y21637D01*
X1944Y21459D01*
X2122Y21306D01*
X2322Y21184D01*
X2538Y21094D01*
X2766Y21039D01*
X3000Y21021D01*
X8054D01*
X7717Y20208D01*
X7469Y19172D01*
X7385Y18110D01*
X7469Y17048D01*
X7717Y16012D01*
X8125Y15028D01*
X8681Y14120D01*
X9373Y13310D01*
X10183Y12618D01*
X11091Y12062D01*
X11323Y11966D01*
Y7874D01*
X11358Y7428D01*
X11462Y6993D01*
X11533Y6822D01*
X11633Y6581D01*
X11867Y6199D01*
X12157Y5859D01*
X16882Y1134D01*
X17223Y843D01*
X17605Y609D01*
X18018Y438D01*
X18206Y393D01*
X394D01*
Y78740D01*
X35811D01*
X35555Y78122D01*
X35364Y77328D01*
X35300Y76515D01*
X35364Y75702D01*
X35555Y74908D01*
X35867Y74154D01*
X36293Y73459D01*
X36823Y72838D01*
X37444Y72308D01*
X38139Y71882D01*
X38893Y71570D01*
X39548Y71412D01*
X38955Y71270D01*
X38230Y70970D01*
X37561Y70560D01*
X36964Y70051D01*
X36455Y69454D01*
X36045Y68785D01*
X35745Y68060D01*
X35562Y67297D01*
X35500Y66515D01*
X35562Y65733D01*
X35745Y64970D01*
X36045Y64245D01*
X36455Y63576D01*
X36964Y62979D01*
X37561Y62470D01*
X38230Y62060D01*
X38955Y61760D01*
X39718Y61577D01*
X40500Y61515D01*
X41282Y61577D01*
X42045Y61760D01*
X42770Y62060D01*
X43439Y62470D01*
X44036Y62979D01*
X44545Y63576D01*
X44955Y64245D01*
X45255Y64970D01*
X45266Y65015D01*
X46933D01*
X46455Y64454D01*
X46045Y63785D01*
X45745Y63060D01*
X45562Y62297D01*
X45500Y61515D01*
X45562Y60733D01*
X45745Y59970D01*
X46045Y59245D01*
X46455Y58576D01*
X46964Y57979D01*
X47561Y57470D01*
X48230Y57060D01*
X48955Y56760D01*
X49718Y56577D01*
X50500Y56515D01*
X51282Y56577D01*
X52045Y56760D01*
X52770Y57060D01*
X53150Y57293D01*
Y52103D01*
X52915Y52006D01*
X52614Y51821D01*
X52345Y51592D01*
X52116Y51323D01*
X51931Y51022D01*
X51796Y50696D01*
X51714Y50352D01*
X51686Y50000D01*
Y39370D01*
X51715Y39018D01*
X51797Y38675D01*
X51829Y38597D01*
G37*
G36*
X49574Y17609D02*X49899Y16825D01*
X50415Y15982D01*
X51057Y15230D01*
X51809Y14588D01*
X52652Y14072D01*
X53565Y13693D01*
X54526Y13463D01*
X55293Y13402D01*
X55261Y12992D01*
X55303Y12460D01*
X55427Y11941D01*
X55632Y11448D01*
X55910Y10994D01*
X56257Y10588D01*
X56663Y10241D01*
X57117Y9963D01*
X57610Y9758D01*
X58129Y9634D01*
X58661Y9592D01*
X59193Y9634D01*
X59712Y9758D01*
X60205Y9963D01*
X60659Y10241D01*
X61065Y10588D01*
X61412Y10994D01*
X61690Y11448D01*
X61895Y11941D01*
X62019Y12460D01*
X62061Y12992D01*
X62019Y13524D01*
X61895Y14043D01*
X61690Y14536D01*
X61412Y14990D01*
X61065Y15396D01*
X60659Y15743D01*
X60492Y15845D01*
X60609Y15982D01*
X61125Y16825D01*
X61504Y17738D01*
X61734Y18699D01*
X61812Y19685D01*
X61734Y20671D01*
X61504Y21632D01*
X61125Y22545D01*
X60609Y23388D01*
X59967Y24140D01*
X59215Y24782D01*
X58372Y25298D01*
X57762Y25551D01*
Y36231D01*
X58119Y35926D01*
X58547Y35664D01*
X59011Y35472D01*
X59499Y35354D01*
X60000Y35315D01*
X60501Y35354D01*
X60989Y35472D01*
X61453Y35664D01*
X61881Y35926D01*
X62263Y36252D01*
X62589Y36634D01*
X62822Y37015D01*
X64893D01*
X65128Y37032D01*
X65357Y37087D01*
X65574Y37178D01*
X65775Y37301D01*
X65954Y37454D01*
X65966Y37468D01*
X73622Y45124D01*
Y5999D01*
X48798D01*
X48841Y6036D01*
X49106Y6346D01*
X49320Y6694D01*
X49476Y7071D01*
X49571Y7467D01*
X49603Y7874D01*
X49574Y17609D01*
G37*
G36*
X23500Y157515D02*X36933D01*
X36455Y156954D01*
X36045Y156285D01*
X35745Y155560D01*
X35562Y154797D01*
X35500Y154015D01*
X35562Y153233D01*
X35745Y152470D01*
X36045Y151745D01*
X36455Y151076D01*
X36964Y150479D01*
X37561Y149970D01*
X38230Y149560D01*
X38955Y149260D01*
X39120Y149220D01*
X38831Y149151D01*
X38048Y148826D01*
X37326Y148384D01*
X36682Y147833D01*
X36131Y147189D01*
X35689Y146467D01*
X35364Y145684D01*
X35166Y144860D01*
X35100Y144015D01*
X35166Y143170D01*
X35364Y142346D01*
X35689Y141563D01*
X36131Y140841D01*
X36682Y140197D01*
X37326Y139646D01*
X38048Y139204D01*
X38503Y139015D01*
X38048Y138826D01*
X37326Y138384D01*
X36682Y137833D01*
X36131Y137189D01*
X35689Y136467D01*
X35364Y135684D01*
X35166Y134860D01*
X35100Y134015D01*
X35166Y133170D01*
X35364Y132346D01*
X35689Y131563D01*
X35779Y131416D01*
X29439Y125076D01*
X29286Y124897D01*
X29163Y124696D01*
X29073Y124479D01*
X29018Y124250D01*
X29000Y124015D01*
Y88015D01*
X29018Y87780D01*
X29073Y87551D01*
X29163Y87334D01*
X29286Y87133D01*
X29439Y86954D01*
X29446Y86948D01*
X35933Y80461D01*
X35939Y80454D01*
X36118Y80301D01*
X36319Y80178D01*
X36536Y80088D01*
X36701Y80048D01*
X36293Y79571D01*
X35867Y78876D01*
X35648Y78346D01*
X23500D01*
Y128927D01*
X23905Y128959D01*
X24300Y129054D01*
X24675Y129209D01*
X25021Y129421D01*
X25330Y129685D01*
X25594Y129994D01*
X25806Y130340D01*
X25961Y130715D01*
X26056Y131110D01*
X26088Y131515D01*
X26056Y131920D01*
X25961Y132315D01*
X25806Y132690D01*
X25594Y133036D01*
X25330Y133345D01*
X25021Y133609D01*
X24675Y133821D01*
X24300Y133976D01*
X23905Y134071D01*
X23500Y134103D01*
Y157515D01*
G37*
G36*
Y196456D02*X39630D01*
X39490Y196336D01*
X35411Y192257D01*
X34656Y192438D01*
X33858Y192501D01*
X33060Y192438D01*
X32282Y192251D01*
X31543Y191945D01*
X30860Y191527D01*
X30252Y191007D01*
X29732Y190399D01*
X29314Y189716D01*
X29008Y188977D01*
X28821Y188199D01*
X28758Y187401D01*
X28821Y186603D01*
X29008Y185825D01*
X29314Y185086D01*
X29732Y184403D01*
X30252Y183795D01*
X30860Y183275D01*
X31543Y182857D01*
X32282Y182551D01*
X33060Y182364D01*
X33858Y182301D01*
X34656Y182364D01*
X35434Y182551D01*
X36173Y182857D01*
X36240Y182898D01*
X45012Y174126D01*
X44971Y174059D01*
X44766Y173566D01*
X44642Y173047D01*
X44600Y172515D01*
X44642Y171983D01*
X44766Y171464D01*
X44971Y170971D01*
X45249Y170517D01*
X45596Y170111D01*
X45708Y170015D01*
X45596Y169919D01*
X45249Y169513D01*
X44971Y169059D01*
X44766Y168566D01*
X44658Y168114D01*
X44631Y168146D01*
X44440Y168309D01*
X44226Y168441D01*
X43994Y168537D01*
X43750Y168595D01*
X43500Y168615D01*
X37250Y168595D01*
X37006Y168537D01*
X36774Y168441D01*
X36560Y168309D01*
X36369Y168146D01*
X36206Y167955D01*
X36074Y167741D01*
X35978Y167509D01*
X35920Y167265D01*
X35900Y167015D01*
X35905Y165388D01*
X35819Y165352D01*
X35618Y165229D01*
X35439Y165076D01*
X32878Y162515D01*
X23500D01*
Y182353D01*
X23633Y182364D01*
X24411Y182551D01*
X25150Y182857D01*
X25833Y183275D01*
X26441Y183795D01*
X26961Y184403D01*
X27379Y185086D01*
X27685Y185825D01*
X27872Y186603D01*
X27935Y187401D01*
X27872Y188199D01*
X27685Y188977D01*
X27379Y189716D01*
X26961Y190399D01*
X26441Y191007D01*
X25833Y191527D01*
X25150Y191945D01*
X24411Y192251D01*
X23633Y192438D01*
X23500Y192448D01*
Y196456D01*
G37*
G36*
X11811Y84083D02*X15433Y80461D01*
X15439Y80454D01*
X15618Y80301D01*
X15819Y80178D01*
X16036Y80088D01*
X16265Y80033D01*
X16500Y80015D01*
X18380D01*
X18397Y79987D01*
X18662Y79677D01*
X18972Y79412D01*
X19320Y79198D01*
X19697Y79042D01*
X20093Y78947D01*
X20500Y78915D01*
X20907Y78947D01*
X21303Y79042D01*
X21680Y79198D01*
X22028Y79412D01*
X22338Y79677D01*
X22603Y79987D01*
X22817Y80335D01*
X22973Y80712D01*
X23068Y81108D01*
X23100Y81515D01*
X23068Y81922D01*
X22973Y82318D01*
X22817Y82695D01*
X22603Y83043D01*
X22338Y83353D01*
X22028Y83618D01*
X21680Y83832D01*
X21498Y83907D01*
X21771Y84020D01*
X22146Y84250D01*
X22480Y84535D01*
X22765Y84869D01*
X22995Y85244D01*
X23163Y85650D01*
X23266Y86077D01*
X23300Y86515D01*
X23266Y86953D01*
X23163Y87380D01*
X22995Y87786D01*
X22765Y88161D01*
X22480Y88495D01*
X22146Y88780D01*
X21771Y89010D01*
X21365Y89178D01*
X20938Y89281D01*
X20500Y89315D01*
X20062Y89281D01*
X19635Y89178D01*
X19229Y89010D01*
X18854Y88780D01*
X18520Y88495D01*
X18235Y88161D01*
X18145Y88015D01*
X17121D01*
X11811Y93325D01*
Y95371D01*
X12237Y95110D01*
X13279Y94679D01*
X14376Y94415D01*
X15500Y94327D01*
X16624Y94415D01*
X17721Y94679D01*
X18763Y95110D01*
X19725Y95700D01*
X20583Y96432D01*
X21315Y97290D01*
X21905Y98252D01*
X22336Y99294D01*
X22600Y100391D01*
X22688Y101515D01*
X22600Y102639D01*
X22336Y103736D01*
X21905Y104778D01*
X21315Y105740D01*
X20583Y106598D01*
X19725Y107330D01*
X18763Y107920D01*
X17721Y108351D01*
X16624Y108615D01*
X15500Y108703D01*
X14376Y108615D01*
X13279Y108351D01*
X12237Y107920D01*
X11811Y107659D01*
Y117857D01*
X12231Y117600D01*
X13275Y117167D01*
X14374Y116904D01*
X15500Y116815D01*
X16626Y116904D01*
X17725Y117167D01*
X18769Y117600D01*
X19732Y118190D01*
X20591Y118924D01*
X21325Y119783D01*
X21915Y120746D01*
X22348Y121790D01*
X22611Y122889D01*
X22700Y124015D01*
X22611Y125141D01*
X22348Y126240D01*
X21915Y127284D01*
X21325Y128247D01*
X20591Y129106D01*
X19732Y129840D01*
X18769Y130430D01*
X17725Y130863D01*
X16626Y131126D01*
X15500Y131215D01*
X14374Y131126D01*
X13275Y130863D01*
X12231Y130430D01*
X11811Y130173D01*
Y134839D01*
X12001Y134854D01*
X12489Y134972D01*
X12953Y135164D01*
X13381Y135426D01*
X13763Y135752D01*
X14089Y136134D01*
X14322Y136515D01*
X15000D01*
X15235Y136533D01*
X15464Y136588D01*
X15681Y136678D01*
X15882Y136801D01*
X16061Y136954D01*
X16073Y136968D01*
X19047Y139942D01*
X19061Y139954D01*
X19214Y140133D01*
X19337Y140334D01*
X19427Y140551D01*
X19482Y140780D01*
X19500Y141015D01*
Y147252D01*
X19634Y147307D01*
X20116Y147603D01*
X20546Y147969D01*
X20912Y148399D01*
X21208Y148881D01*
X21424Y149403D01*
X21556Y149952D01*
X21600Y150515D01*
X21556Y151078D01*
X21424Y151627D01*
X21208Y152149D01*
X20912Y152631D01*
X20546Y153061D01*
X20116Y153427D01*
X19634Y153723D01*
X19112Y153939D01*
X18563Y154071D01*
X18000Y154115D01*
X17437Y154071D01*
X16888Y153939D01*
X16366Y153723D01*
X15884Y153427D01*
X15454Y153061D01*
X15088Y152631D01*
X14792Y152149D01*
X14576Y151627D01*
X14444Y151078D01*
X14400Y150515D01*
X14444Y149952D01*
X14576Y149403D01*
X14792Y148881D01*
X15088Y148399D01*
X15454Y147969D01*
X15884Y147603D01*
X16366Y147307D01*
X16500Y147252D01*
Y141637D01*
X14378Y139515D01*
X14322D01*
X14089Y139896D01*
X13763Y140278D01*
X13381Y140604D01*
X12953Y140866D01*
X12489Y141058D01*
X12001Y141176D01*
X11811Y141191D01*
Y157515D01*
X23500D01*
Y134103D01*
X23095Y134071D01*
X22700Y133976D01*
X22325Y133821D01*
X21979Y133609D01*
X21670Y133345D01*
X21406Y133036D01*
X21194Y132690D01*
X21039Y132315D01*
X20944Y131920D01*
X20912Y131515D01*
X20944Y131110D01*
X21039Y130715D01*
X21194Y130340D01*
X21406Y129994D01*
X21670Y129685D01*
X21979Y129421D01*
X22325Y129209D01*
X22700Y129054D01*
X23095Y128959D01*
X23500Y128927D01*
Y78346D01*
X11811D01*
Y84083D01*
G37*
G36*
Y196456D02*X23500D01*
Y192448D01*
X22835Y192501D01*
X22037Y192438D01*
X21259Y192251D01*
X20520Y191945D01*
X19837Y191527D01*
X19229Y191007D01*
X18709Y190399D01*
X18291Y189716D01*
X17985Y188977D01*
X17798Y188199D01*
X17735Y187401D01*
X17798Y186603D01*
X17985Y185825D01*
X18291Y185086D01*
X18709Y184403D01*
X19229Y183795D01*
X19837Y183275D01*
X20520Y182857D01*
X21259Y182551D01*
X22037Y182364D01*
X22835Y182301D01*
X23500Y182353D01*
Y162515D01*
X19775D01*
X20085Y162705D01*
X21015Y163500D01*
X21810Y164430D01*
X22450Y165474D01*
X22918Y166605D01*
X23204Y167795D01*
X23300Y169015D01*
X23204Y170235D01*
X22918Y171425D01*
X22450Y172556D01*
X21810Y173600D01*
X21015Y174530D01*
X20085Y175325D01*
X19041Y175965D01*
X17910Y176433D01*
X16720Y176719D01*
X15500Y176815D01*
X14280Y176719D01*
X13090Y176433D01*
X11959Y175965D01*
X11811Y175874D01*
Y182301D01*
X12609Y182364D01*
X13387Y182551D01*
X14126Y182857D01*
X14809Y183275D01*
X15417Y183795D01*
X15937Y184403D01*
X16355Y185086D01*
X16661Y185825D01*
X16848Y186603D01*
X16911Y187401D01*
X16848Y188199D01*
X16661Y188977D01*
X16355Y189716D01*
X15937Y190399D01*
X15417Y191007D01*
X14809Y191527D01*
X14126Y191945D01*
X13387Y192251D01*
X12609Y192438D01*
X11811Y192501D01*
Y196456D01*
G37*
G36*
Y141191D02*X11500Y141215D01*
X10999Y141176D01*
X10511Y141058D01*
X10047Y140866D01*
X9619Y140604D01*
X9237Y140278D01*
X8999Y139999D01*
Y157515D01*
X11811D01*
Y141191D01*
G37*
G36*
Y130173D02*X11268Y129840D01*
X10409Y129106D01*
X9675Y128247D01*
X9085Y127284D01*
X8999Y127077D01*
Y136031D01*
X9237Y135752D01*
X9619Y135426D01*
X10047Y135164D01*
X10511Y134972D01*
X10999Y134854D01*
X11500Y134815D01*
X11811Y134839D01*
Y130173D01*
G37*
G36*
Y107659D02*X11275Y107330D01*
X10417Y106598D01*
X9685Y105740D01*
X9095Y104778D01*
X8999Y104546D01*
Y120953D01*
X9085Y120746D01*
X9675Y119783D01*
X10409Y118924D01*
X11268Y118190D01*
X11811Y117857D01*
Y107659D01*
G37*
G36*
Y93325D02*X8999Y96137D01*
Y98484D01*
X9095Y98252D01*
X9685Y97290D01*
X10417Y96432D01*
X11275Y95700D01*
X11811Y95371D01*
Y93325D01*
G37*
G36*
X394Y78346D02*Y196456D01*
X11811D01*
Y192501D01*
X11013Y192438D01*
X10235Y192251D01*
X9496Y191945D01*
X8813Y191527D01*
X8205Y191007D01*
X7685Y190399D01*
X7267Y189716D01*
X6961Y188977D01*
X6774Y188199D01*
X6711Y187401D01*
X6774Y186603D01*
X6961Y185825D01*
X7267Y185086D01*
X7685Y184403D01*
X8205Y183795D01*
X8813Y183275D01*
X9496Y182857D01*
X10235Y182551D01*
X11013Y182364D01*
X11811Y182301D01*
Y175874D01*
X10915Y175325D01*
X9985Y174530D01*
X9190Y173600D01*
X8550Y172556D01*
X8082Y171425D01*
X7796Y170235D01*
X7700Y169015D01*
X7796Y167795D01*
X8082Y166605D01*
X8550Y165474D01*
X9190Y164430D01*
X9985Y163500D01*
X10915Y162705D01*
X11225Y162515D01*
X4500D01*
X4265Y162497D01*
X4036Y162442D01*
X3819Y162352D01*
X3618Y162229D01*
X3439Y162076D01*
X3286Y161897D01*
X3163Y161696D01*
X3073Y161479D01*
X3018Y161250D01*
X3000Y161015D01*
Y93515D01*
X3019Y93281D01*
X3073Y93052D01*
X3163Y92835D01*
X3286Y92634D01*
X3439Y92455D01*
X11811Y84083D01*
Y78346D01*
X394D01*
G37*
G36*
X69759Y56132D02*X63642Y50015D01*
X61985D01*
X61881Y50104D01*
X61453Y50366D01*
X60989Y50558D01*
X60501Y50676D01*
X60000Y50715D01*
X59499Y50676D01*
X59011Y50558D01*
X58547Y50366D01*
X58119Y50104D01*
X58015Y50015D01*
X56186D01*
X56160Y50352D01*
X56078Y50696D01*
X55943Y51022D01*
X55758Y51323D01*
X55529Y51592D01*
X55500Y51617D01*
Y63085D01*
X58371Y65294D01*
X58382Y65301D01*
X58398Y65315D01*
X58414Y65327D01*
X58460Y65367D01*
X58561Y65454D01*
X58576Y65471D01*
X58590Y65484D01*
X58644Y65551D01*
X58714Y65633D01*
X58725Y65651D01*
X58738Y65667D01*
X58784Y65748D01*
X58837Y65834D01*
X58845Y65854D01*
X58855Y65871D01*
X58890Y65962D01*
X58927Y66051D01*
X58933Y66074D01*
X58939Y66091D01*
X58958Y66178D01*
X58982Y66280D01*
X58984Y66300D01*
X58988Y66321D01*
X58993Y66425D01*
X59000Y66515D01*
Y79516D01*
X58982Y79750D01*
X58927Y79979D01*
X58837Y80196D01*
X58714Y80397D01*
X58561Y80576D01*
X58554Y80582D01*
X56794Y82342D01*
Y83515D01*
X56790Y83565D01*
Y83615D01*
X56782Y83667D01*
X56778Y83717D01*
X56767Y83763D01*
X56759Y83815D01*
X56742Y83867D01*
X56731Y83915D01*
X56714Y83956D01*
X56697Y84009D01*
X56669Y84064D01*
X56653Y84102D01*
X56633Y84134D01*
X56605Y84190D01*
X56572Y84235D01*
X56547Y84276D01*
X56513Y84315D01*
X56485Y84354D01*
X56448Y84392D01*
X56415Y84430D01*
X56378Y84462D01*
X56342Y84498D01*
X55500Y85220D01*
Y95515D01*
X52305D01*
X51860Y95700D01*
X51188Y95861D01*
X50500Y95915D01*
X49812Y95861D01*
X49140Y95700D01*
X48695Y95515D01*
X47000D01*
Y103015D01*
X40500D01*
Y115515D01*
X49354Y124369D01*
X49749Y124274D01*
X50500Y124215D01*
X51251Y124274D01*
X51983Y124450D01*
X52679Y124738D01*
X53321Y125132D01*
X53894Y125621D01*
X54383Y126194D01*
X54556Y126476D01*
X57000Y128771D01*
X57022Y136487D01*
X57077Y136621D01*
X57261Y137204D01*
X57393Y137800D01*
X57473Y138405D01*
X57500Y139015D01*
Y140791D01*
X57621Y140894D01*
X57927Y141252D01*
X58173Y141653D01*
X58353Y142088D01*
X58463Y142546D01*
X58500Y143015D01*
Y145016D01*
X58463Y145485D01*
X58353Y145943D01*
X58173Y146378D01*
X57936Y146765D01*
X62008D01*
X62360Y146793D01*
X62703Y146875D01*
X63029Y147010D01*
X63331Y147195D01*
X63599Y147424D01*
X63611Y147438D01*
X64903Y148730D01*
X65422Y148606D01*
X66142Y148549D01*
X66862Y148606D01*
X67563Y148774D01*
X68230Y149050D01*
X68846Y149428D01*
X69395Y149896D01*
X69759Y150323D01*
Y56132D01*
G37*
G54D12*X66535Y164567D02*Y180708D01*
X73622Y172047D02*X70079Y175590D01*
Y181495D01*
X48000Y167515D02*X51575Y171090D01*
X75197Y189370D02*X99213D01*
X40551Y195275D02*X128740D01*
X50394Y193307D02*X120472D01*
X91339Y187401D02*X92913Y185826D01*
X112598Y191338D02*X59449D01*
X128740Y195275D02*X138189Y185826D01*
Y183070D01*
X127953Y185826D02*Y183070D01*
X118110Y185826D02*Y183070D01*
X99213Y189370D02*X102756Y185826D01*
X120472Y193307D02*X127953Y185826D01*
X112598Y191338D02*X118110Y185826D01*
X66535Y180708D02*X75197Y189370D01*
X70079Y181495D02*X75984Y187401D01*
X102756Y185826D02*Y183070D01*
X75984Y187401D02*X91339D01*
X92913Y185826D02*Y183070D01*
X33858Y188582D02*X40551Y195275D01*
X51575Y171090D02*Y180708D01*
X44488Y187401D01*
X50394Y193307D01*
X55512Y187401D02*X59449Y191338D01*
X48031Y173228D02*X33858Y187401D01*
Y188582D01*
X48000Y172515D02*X48031Y173228D01*
X40500Y164015D02*X36500D01*
G54D13*X40500Y154015D02*X51500Y149015D01*
X40500Y144015D02*X50500Y139015D01*
G54D11*X55500D02*Y143015D01*
G54D12*X55512Y155527D02*Y187401D01*
G54D14*X62008Y149015D02*X66142Y153149D01*
G54D12*X71260Y159842D02*X68898Y162204D01*
X66535Y164567D01*
X54000Y154015D02*X55512Y155527D01*
G54D14*X14173Y7874D02*X18898Y3149D01*
X14173Y18110D02*Y7874D01*
G54D15*X3000Y32815D02*X6200Y36015D01*
Y40015D01*
G54D12*X5500Y39015D02*X5700Y38115D01*
G54D15*X3000Y22515D02*Y32815D01*
X30500Y22515D02*X3000D01*
X32500Y24515D02*X30500Y22515D01*
X34000Y31015D02*X32500Y29515D01*
Y24515D01*
G54D12*X17800Y38315D02*X7500Y27015D01*
X14173Y18110D02*X18898D01*
X21654Y15354D01*
Y10236D02*X29527D01*
X32283Y12992D01*
X30009Y37015D02*X29953Y36959D01*
X34000Y37015D02*X30009D01*
X40500Y32515D02*X34000Y37015D01*
X22000Y47515D02*X19500D01*
X27000Y42515D02*X22000Y47515D01*
X29953Y42471D02*X27000Y42515D01*
X49000Y32515D02*X40500D01*
X51000Y34515D02*X49000Y32515D01*
X51000Y35515D02*Y34515D01*
X43500Y42704D02*X43733Y42471D01*
Y36959D01*
X17800Y38315D02*Y41515D01*
X24500Y32015D02*X17800Y38315D01*
X18800Y39015D02*X17800Y40015D01*
Y38315D01*
G54D14*X18898Y3149D02*X152756D01*
X153000Y7850D01*
G54D12*X60000Y47515D02*X61000D01*
X63264D02*X71260Y55511D01*
X64893Y38515D02*X73622Y47244D01*
X60000Y38515D02*X64893D01*
X43500Y56015D02*Y42704D01*
G54D14*X57874Y53937D02*X53937Y50000D01*
Y39370D01*
X55512Y37795D01*
Y19685D01*
G54D12*X58661Y12992D02*X44003D01*
G54D15*X34000Y32515D02*Y31015D01*
X45500Y89015D02*Y91515D01*
G54D13*X36000Y76515D02*X40500D01*
G54D12*X36500Y58015D02*X36614Y39763D01*
X35500Y64015D02*Y76515D01*
G54D15*X49000Y86515D02*X45500Y89015D01*
G54D13*X37500Y86515D02*X34500Y89515D01*
G54D12*X16500Y81515D02*X20500D01*
G54D15*X52000Y86515D02*X49000D01*
X55500Y83515D02*X52000Y86515D01*
G54D12*X55500Y81515D02*X57500Y79515D01*
G54D13*X50500Y81515D02*X40500Y86515D01*
G54D12*X50500Y76515D02*X40500Y81515D01*
G54D13*X26500Y86015D02*X36000Y76515D01*
G54D12*X17500Y75515D02*X19000D01*
X43500Y56015D02*X35500Y64015D01*
X19000Y75515D02*X36500Y58015D01*
X17500Y70515D02*X5500Y58515D01*
Y39015D01*
X35500Y76515D02*X40500D01*
X57500Y66515D02*X51000Y61515D01*
X57500Y79515D02*Y66515D01*
G54D15*X55000Y69515D02*X52000Y66515D01*
X50500Y76515D02*X53000D01*
G54D12*X40500Y66515D02*X50500D01*
G54D15*X53000Y76515D02*X55000Y74515D01*
X52000Y66515D02*X50500D01*
X55000Y74515D02*Y69515D01*
G54D13*X40500Y76515D02*X50500Y71515D01*
G54D15*X55500Y81515D02*Y83515D01*
G54D12*X73622Y47244D02*Y172047D01*
X60000Y47515D02*X63264D01*
X71260Y55511D02*Y159842D01*
G54D14*X50500Y149015D02*X52500D01*
X64500Y113515D02*X53500D01*
G54D13*X51500Y149015D02*X55500Y145015D01*
Y143015D01*
G54D12*X52000Y130515D02*X50500Y129015D01*
G54D14*Y149015D02*X62008D01*
G54D12*X38500Y101515D02*X45500D01*
Y91515D02*Y101515D01*
G54D13*X40500Y86515D02*X37500D01*
G54D12*X78000Y182850D02*Y7850D01*
X153000Y182850D02*Y7850D01*
X18000Y150515D02*Y141015D01*
X33500Y161015D02*X4500D01*
X36500Y164015D02*X33500Y161015D01*
X50500Y159015D02*X7500D01*
X38500Y116015D02*Y101515D01*
G54D11*X42500Y127015D02*X45500Y129015D01*
G54D12*X38500Y116015D02*X50500Y128015D01*
G54D13*X34500Y119015D02*X42500Y127015D01*
X26500Y130015D02*X40500Y144015D01*
G54D12*X16500Y86515D02*X20500D01*
X15000Y138015D02*X11500D01*
X18000Y141015D02*X15000Y138015D01*
X30500Y124015D02*X40500Y134015D01*
G54D14*X23500Y131515D02*X26382D01*
G54D12*X7500Y95515D02*Y159015D01*
X4500Y93515D02*X16500Y81515D01*
X4500Y93515D02*Y161015D01*
G54D13*X26500Y130015D02*Y86015D01*
G54D12*X7500Y95515D02*X16500Y86515D01*
X30500Y88015D02*Y124015D01*
G54D13*X34500Y119015D02*Y89515D01*
G54D12*X37000Y81515D02*X30500Y88015D01*
X40500Y81515D02*X37000D01*
G54D11*X50500Y134015D02*G75*G03X55500Y139015I0J5000D01*G01*
X50500Y134015D02*G75*G03X45500Y129015I0J-5000D01*G01*
G54D16*X50500Y81515D03*
Y91515D03*
Y71515D03*
X40500Y86515D03*
Y134015D03*
Y154015D03*
Y144015D03*
G54D11*G36*
X37500Y167015D02*Y161015D01*
X43500D01*
Y167015D01*
X37500D01*
G37*
G36*
Y99515D02*Y93515D01*
X43500D01*
Y99515D01*
X37500D01*
G37*
G54D16*X50500Y129015D03*
Y149015D03*
Y159015D03*
Y139015D03*
X37500Y27015D03*
X47500D03*
X50500Y61515D03*
X40500Y66515D03*
G54D11*G36*
X4500Y30015D02*Y24015D01*
X10500D01*
Y30015D01*
X4500D01*
G37*
G54D16*X17500Y27015D03*
X27500D03*
X40500Y76515D03*
G54D11*G36*
X151091Y9759D02*Y5941D01*
X154909D01*
Y9759D01*
X151091D01*
G37*
G36*
Y24759D02*Y20941D01*
X154909D01*
Y24759D01*
X151091D01*
G37*
G36*
Y19759D02*Y15941D01*
X154909D01*
Y19759D01*
X151091D01*
G37*
G36*
Y14759D02*Y10941D01*
X154909D01*
Y14759D01*
X151091D01*
G37*
G36*
X76091Y24759D02*Y20941D01*
X79909D01*
Y24759D01*
X76091D01*
G37*
G36*
Y19759D02*Y15941D01*
X79909D01*
Y19759D01*
X76091D01*
G37*
G36*
X81091Y24759D02*Y20941D01*
X84909D01*
Y24759D01*
X81091D01*
G37*
G36*
Y19759D02*Y15941D01*
X84909D01*
Y19759D01*
X81091D01*
G37*
G36*
X76091Y14759D02*Y10941D01*
X79909D01*
Y14759D01*
X76091D01*
G37*
G36*
Y9759D02*Y5941D01*
X79909D01*
Y9759D01*
X76091D01*
G37*
G36*
X81091Y14759D02*Y10941D01*
X84909D01*
Y14759D01*
X81091D01*
G37*
G36*
Y9759D02*Y5941D01*
X84909D01*
Y9759D01*
X81091D01*
G37*
G36*
X86091Y24759D02*Y20941D01*
X89909D01*
Y24759D01*
X86091D01*
G37*
G36*
X91091D02*Y20941D01*
X94909D01*
Y24759D01*
X91091D01*
G37*
G36*
X86091Y19759D02*Y15941D01*
X89909D01*
Y19759D01*
X86091D01*
G37*
G36*
X91091D02*Y15941D01*
X94909D01*
Y19759D01*
X91091D01*
G37*
G36*
Y14759D02*Y10941D01*
X94909D01*
Y14759D01*
X91091D01*
G37*
G36*
Y9759D02*Y5941D01*
X94909D01*
Y9759D01*
X91091D01*
G37*
G36*
X86091Y14759D02*Y10941D01*
X89909D01*
Y14759D01*
X86091D01*
G37*
G36*
Y9759D02*Y5941D01*
X89909D01*
Y9759D01*
X86091D01*
G37*
G36*
X96091Y24759D02*Y20941D01*
X99909D01*
Y24759D01*
X96091D01*
G37*
G36*
Y19759D02*Y15941D01*
X99909D01*
Y19759D01*
X96091D01*
G37*
G36*
X101091Y24759D02*Y20941D01*
X104909D01*
Y24759D01*
X101091D01*
G37*
G36*
Y19759D02*Y15941D01*
X104909D01*
Y19759D01*
X101091D01*
G37*
G36*
X96091Y14759D02*Y10941D01*
X99909D01*
Y14759D01*
X96091D01*
G37*
G36*
Y9759D02*Y5941D01*
X99909D01*
Y9759D01*
X96091D01*
G37*
G36*
X101091Y14759D02*Y10941D01*
X104909D01*
Y14759D01*
X101091D01*
G37*
G36*
Y9759D02*Y5941D01*
X104909D01*
Y9759D01*
X101091D01*
G37*
G36*
X106091Y24759D02*Y20941D01*
X109909D01*
Y24759D01*
X106091D01*
G37*
G36*
Y19759D02*Y15941D01*
X109909D01*
Y19759D01*
X106091D01*
G37*
G36*
X111091Y24759D02*Y20941D01*
X114909D01*
Y24759D01*
X111091D01*
G37*
G36*
Y19759D02*Y15941D01*
X114909D01*
Y19759D01*
X111091D01*
G37*
G36*
X106091Y14759D02*Y10941D01*
X109909D01*
Y14759D01*
X106091D01*
G37*
G36*
Y9759D02*Y5941D01*
X109909D01*
Y9759D01*
X106091D01*
G37*
G36*
X111091Y14759D02*Y10941D01*
X114909D01*
Y14759D01*
X111091D01*
G37*
G36*
Y9759D02*Y5941D01*
X114909D01*
Y9759D01*
X111091D01*
G37*
G36*
X116091Y19759D02*Y15941D01*
X119909D01*
Y19759D01*
X116091D01*
G37*
G36*
Y14759D02*Y10941D01*
X119909D01*
Y14759D01*
X116091D01*
G37*
G36*
Y9759D02*Y5941D01*
X119909D01*
Y9759D01*
X116091D01*
G37*
G36*
Y24759D02*Y20941D01*
X119909D01*
Y24759D01*
X116091D01*
G37*
G36*
X121091D02*Y20941D01*
X124909D01*
Y24759D01*
X121091D01*
G37*
G36*
X126091D02*Y20941D01*
X129909D01*
Y24759D01*
X126091D01*
G37*
G36*
X141091D02*Y20941D01*
X144909D01*
Y24759D01*
X141091D01*
G37*
G36*
X121091Y19759D02*Y15941D01*
X124909D01*
Y19759D01*
X121091D01*
G37*
G36*
Y14759D02*Y10941D01*
X124909D01*
Y14759D01*
X121091D01*
G37*
G36*
Y9759D02*Y5941D01*
X124909D01*
Y9759D01*
X121091D01*
G37*
G36*
X126091Y19759D02*Y15941D01*
X129909D01*
Y19759D01*
X126091D01*
G37*
G36*
Y14759D02*Y10941D01*
X129909D01*
Y14759D01*
X126091D01*
G37*
G36*
Y9759D02*Y5941D01*
X129909D01*
Y9759D01*
X126091D01*
G37*
G36*
X131091Y24759D02*Y20941D01*
X134909D01*
Y24759D01*
X131091D01*
G37*
G36*
X136091D02*Y20941D01*
X139909D01*
Y24759D01*
X136091D01*
G37*
G36*
X131091Y19759D02*Y15941D01*
X134909D01*
Y19759D01*
X131091D01*
G37*
G36*
Y14759D02*Y10941D01*
X134909D01*
Y14759D01*
X131091D01*
G37*
G36*
Y9759D02*Y5941D01*
X134909D01*
Y9759D01*
X131091D01*
G37*
G36*
X136091Y19759D02*Y15941D01*
X139909D01*
Y19759D01*
X136091D01*
G37*
G36*
Y14759D02*Y10941D01*
X139909D01*
Y14759D01*
X136091D01*
G37*
G36*
Y9759D02*Y5941D01*
X139909D01*
Y9759D01*
X136091D01*
G37*
G36*
X141091Y19759D02*Y15941D01*
X144909D01*
Y19759D01*
X141091D01*
G37*
G36*
Y14759D02*Y10941D01*
X144909D01*
Y14759D01*
X141091D01*
G37*
G36*
Y9759D02*Y5941D01*
X144909D01*
Y9759D01*
X141091D01*
G37*
G36*
X146091Y24759D02*Y20941D01*
X149909D01*
Y24759D01*
X146091D01*
G37*
G36*
Y19759D02*Y15941D01*
X149909D01*
Y19759D01*
X146091D01*
G37*
G36*
Y14759D02*Y10941D01*
X149909D01*
Y14759D01*
X146091D01*
G37*
G36*
Y9759D02*Y5941D01*
X149909D01*
Y9759D01*
X146091D01*
G37*
G36*
X91091Y144759D02*Y140941D01*
X94909D01*
Y144759D01*
X91091D01*
G37*
G36*
Y139759D02*Y135941D01*
X94909D01*
Y139759D01*
X91091D01*
G37*
G36*
Y134759D02*Y130941D01*
X94909D01*
Y134759D01*
X91091D01*
G37*
G36*
Y129759D02*Y125941D01*
X94909D01*
Y129759D01*
X91091D01*
G37*
G36*
Y124759D02*Y120941D01*
X94909D01*
Y124759D01*
X91091D01*
G37*
G36*
Y119759D02*Y115941D01*
X94909D01*
Y119759D01*
X91091D01*
G37*
G36*
Y114759D02*Y110941D01*
X94909D01*
Y114759D01*
X91091D01*
G37*
G36*
Y109759D02*Y105941D01*
X94909D01*
Y109759D01*
X91091D01*
G37*
G36*
Y104759D02*Y100941D01*
X94909D01*
Y104759D01*
X91091D01*
G37*
G36*
Y99759D02*Y95941D01*
X94909D01*
Y99759D01*
X91091D01*
G37*
G36*
Y94759D02*Y90941D01*
X94909D01*
Y94759D01*
X91091D01*
G37*
G36*
X96091Y149759D02*Y145941D01*
X99909D01*
Y149759D01*
X96091D01*
G37*
G36*
Y144759D02*Y140941D01*
X99909D01*
Y144759D01*
X96091D01*
G37*
G36*
Y139759D02*Y135941D01*
X99909D01*
Y139759D01*
X96091D01*
G37*
G36*
Y134759D02*Y130941D01*
X99909D01*
Y134759D01*
X96091D01*
G37*
G36*
Y129759D02*Y125941D01*
X99909D01*
Y129759D01*
X96091D01*
G37*
G36*
Y124759D02*Y120941D01*
X99909D01*
Y124759D01*
X96091D01*
G37*
G36*
Y119759D02*Y115941D01*
X99909D01*
Y119759D01*
X96091D01*
G37*
G36*
Y114759D02*Y110941D01*
X99909D01*
Y114759D01*
X96091D01*
G37*
G36*
Y109759D02*Y105941D01*
X99909D01*
Y109759D01*
X96091D01*
G37*
G36*
Y104759D02*Y100941D01*
X99909D01*
Y104759D01*
X96091D01*
G37*
G36*
Y99759D02*Y95941D01*
X99909D01*
Y99759D01*
X96091D01*
G37*
G36*
Y94759D02*Y90941D01*
X99909D01*
Y94759D01*
X96091D01*
G37*
G36*
Y169759D02*Y165941D01*
X99909D01*
Y169759D01*
X96091D01*
G37*
G36*
Y164759D02*Y160941D01*
X99909D01*
Y164759D01*
X96091D01*
G37*
G36*
Y159759D02*Y155941D01*
X99909D01*
Y159759D01*
X96091D01*
G37*
G36*
Y154759D02*Y150941D01*
X99909D01*
Y154759D01*
X96091D01*
G37*
G36*
X101091Y174759D02*Y170941D01*
X104909D01*
Y174759D01*
X101091D01*
G37*
G36*
Y169759D02*Y165941D01*
X104909D01*
Y169759D01*
X101091D01*
G37*
G36*
Y164759D02*Y160941D01*
X104909D01*
Y164759D01*
X101091D01*
G37*
G36*
Y159759D02*Y155941D01*
X104909D01*
Y159759D01*
X101091D01*
G37*
G36*
Y154759D02*Y150941D01*
X104909D01*
Y154759D01*
X101091D01*
G37*
G36*
Y149759D02*Y145941D01*
X104909D01*
Y149759D01*
X101091D01*
G37*
G36*
Y144759D02*Y140941D01*
X104909D01*
Y144759D01*
X101091D01*
G37*
G36*
Y139759D02*Y135941D01*
X104909D01*
Y139759D01*
X101091D01*
G37*
G36*
Y134759D02*Y130941D01*
X104909D01*
Y134759D01*
X101091D01*
G37*
G36*
Y129759D02*Y125941D01*
X104909D01*
Y129759D01*
X101091D01*
G37*
G36*
Y124759D02*Y120941D01*
X104909D01*
Y124759D01*
X101091D01*
G37*
G36*
Y119759D02*Y115941D01*
X104909D01*
Y119759D01*
X101091D01*
G37*
G36*
Y114759D02*Y110941D01*
X104909D01*
Y114759D01*
X101091D01*
G37*
G36*
Y109759D02*Y105941D01*
X104909D01*
Y109759D01*
X101091D01*
G37*
G36*
Y104759D02*Y100941D01*
X104909D01*
Y104759D01*
X101091D01*
G37*
G36*
Y99759D02*Y95941D01*
X104909D01*
Y99759D01*
X101091D01*
G37*
G36*
Y94759D02*Y90941D01*
X104909D01*
Y94759D01*
X101091D01*
G37*
G36*
X106091Y144759D02*Y140941D01*
X109909D01*
Y144759D01*
X106091D01*
G37*
G36*
Y139759D02*Y135941D01*
X109909D01*
Y139759D01*
X106091D01*
G37*
G36*
Y134759D02*Y130941D01*
X109909D01*
Y134759D01*
X106091D01*
G37*
G36*
Y129759D02*Y125941D01*
X109909D01*
Y129759D01*
X106091D01*
G37*
G36*
Y124759D02*Y120941D01*
X109909D01*
Y124759D01*
X106091D01*
G37*
G36*
Y119759D02*Y115941D01*
X109909D01*
Y119759D01*
X106091D01*
G37*
G36*
Y114759D02*Y110941D01*
X109909D01*
Y114759D01*
X106091D01*
G37*
G36*
Y109759D02*Y105941D01*
X109909D01*
Y109759D01*
X106091D01*
G37*
G36*
Y104759D02*Y100941D01*
X109909D01*
Y104759D01*
X106091D01*
G37*
G36*
Y99759D02*Y95941D01*
X109909D01*
Y99759D01*
X106091D01*
G37*
G36*
Y94759D02*Y90941D01*
X109909D01*
Y94759D01*
X106091D01*
G37*
G36*
Y89759D02*Y85941D01*
X109909D01*
Y89759D01*
X106091D01*
G37*
G36*
X111091Y149759D02*Y145941D01*
X114909D01*
Y149759D01*
X111091D01*
G37*
G36*
Y144759D02*Y140941D01*
X114909D01*
Y144759D01*
X111091D01*
G37*
G36*
Y139759D02*Y135941D01*
X114909D01*
Y139759D01*
X111091D01*
G37*
G36*
Y134759D02*Y130941D01*
X114909D01*
Y134759D01*
X111091D01*
G37*
G36*
Y129759D02*Y125941D01*
X114909D01*
Y129759D01*
X111091D01*
G37*
G36*
Y124759D02*Y120941D01*
X114909D01*
Y124759D01*
X111091D01*
G37*
G36*
Y119759D02*Y115941D01*
X114909D01*
Y119759D01*
X111091D01*
G37*
G36*
Y114759D02*Y110941D01*
X114909D01*
Y114759D01*
X111091D01*
G37*
G36*
Y109759D02*Y105941D01*
X114909D01*
Y109759D01*
X111091D01*
G37*
G36*
Y104759D02*Y100941D01*
X114909D01*
Y104759D01*
X111091D01*
G37*
G36*
Y99759D02*Y95941D01*
X114909D01*
Y99759D01*
X111091D01*
G37*
G36*
Y94759D02*Y90941D01*
X114909D01*
Y94759D01*
X111091D01*
G37*
G36*
Y89759D02*Y85941D01*
X114909D01*
Y89759D01*
X111091D01*
G37*
G36*
X91091Y179759D02*Y175941D01*
X94909D01*
Y179759D01*
X91091D01*
G37*
G36*
Y174759D02*Y170941D01*
X94909D01*
Y174759D01*
X91091D01*
G37*
G36*
Y169759D02*Y165941D01*
X94909D01*
Y169759D01*
X91091D01*
G37*
G36*
Y164759D02*Y160941D01*
X94909D01*
Y164759D01*
X91091D01*
G37*
G36*
Y159759D02*Y155941D01*
X94909D01*
Y159759D01*
X91091D01*
G37*
G36*
Y154759D02*Y150941D01*
X94909D01*
Y154759D01*
X91091D01*
G37*
G36*
Y149759D02*Y145941D01*
X94909D01*
Y149759D01*
X91091D01*
G37*
G36*
Y184759D02*Y180941D01*
X94909D01*
Y184759D01*
X91091D01*
G37*
G36*
X96091D02*Y180941D01*
X99909D01*
Y184759D01*
X96091D01*
G37*
G36*
Y179759D02*Y175941D01*
X99909D01*
Y179759D01*
X96091D01*
G37*
G36*
Y174759D02*Y170941D01*
X99909D01*
Y174759D01*
X96091D01*
G37*
G36*
X101091Y184759D02*Y180941D01*
X104909D01*
Y184759D01*
X101091D01*
G37*
G36*
Y179759D02*Y175941D01*
X104909D01*
Y179759D01*
X101091D01*
G37*
G36*
X106091Y184759D02*Y180941D01*
X109909D01*
Y184759D01*
X106091D01*
G37*
G36*
Y179759D02*Y175941D01*
X109909D01*
Y179759D01*
X106091D01*
G37*
G36*
Y174759D02*Y170941D01*
X109909D01*
Y174759D01*
X106091D01*
G37*
G36*
Y169759D02*Y165941D01*
X109909D01*
Y169759D01*
X106091D01*
G37*
G36*
Y164759D02*Y160941D01*
X109909D01*
Y164759D01*
X106091D01*
G37*
G36*
Y159759D02*Y155941D01*
X109909D01*
Y159759D01*
X106091D01*
G37*
G36*
Y154759D02*Y150941D01*
X109909D01*
Y154759D01*
X106091D01*
G37*
G36*
Y149759D02*Y145941D01*
X109909D01*
Y149759D01*
X106091D01*
G37*
G36*
X111091Y184759D02*Y180941D01*
X114909D01*
Y184759D01*
X111091D01*
G37*
G36*
Y179759D02*Y175941D01*
X114909D01*
Y179759D01*
X111091D01*
G37*
G36*
Y174759D02*Y170941D01*
X114909D01*
Y174759D01*
X111091D01*
G37*
G36*
Y169759D02*Y165941D01*
X114909D01*
Y169759D01*
X111091D01*
G37*
G36*
Y164759D02*Y160941D01*
X114909D01*
Y164759D01*
X111091D01*
G37*
G36*
Y159759D02*Y155941D01*
X114909D01*
Y159759D01*
X111091D01*
G37*
G36*
Y154759D02*Y150941D01*
X114909D01*
Y154759D01*
X111091D01*
G37*
G36*
X116091Y184759D02*Y180941D01*
X119909D01*
Y184759D01*
X116091D01*
G37*
G36*
Y179759D02*Y175941D01*
X119909D01*
Y179759D01*
X116091D01*
G37*
G36*
Y174759D02*Y170941D01*
X119909D01*
Y174759D01*
X116091D01*
G37*
G36*
X121091Y184759D02*Y180941D01*
X124909D01*
Y184759D01*
X121091D01*
G37*
G36*
Y179759D02*Y175941D01*
X124909D01*
Y179759D01*
X121091D01*
G37*
G36*
X126091Y184759D02*Y180941D01*
X129909D01*
Y184759D01*
X126091D01*
G37*
G36*
X131091D02*Y180941D01*
X134909D01*
Y184759D01*
X131091D01*
G37*
G36*
X121091Y174759D02*Y170941D01*
X124909D01*
Y174759D01*
X121091D01*
G37*
G36*
X126091D02*Y170941D01*
X129909D01*
Y174759D01*
X126091D01*
G37*
G36*
Y169759D02*Y165941D01*
X129909D01*
Y169759D01*
X126091D01*
G37*
G36*
X131091Y174759D02*Y170941D01*
X134909D01*
Y174759D01*
X131091D01*
G37*
G36*
X126091Y179759D02*Y175941D01*
X129909D01*
Y179759D01*
X126091D01*
G37*
G36*
X131091D02*Y175941D01*
X134909D01*
Y179759D01*
X131091D01*
G37*
G36*
Y169759D02*Y165941D01*
X134909D01*
Y169759D01*
X131091D01*
G37*
G36*
Y164759D02*Y160941D01*
X134909D01*
Y164759D01*
X131091D01*
G37*
G36*
Y159759D02*Y155941D01*
X134909D01*
Y159759D01*
X131091D01*
G37*
G36*
Y154759D02*Y150941D01*
X134909D01*
Y154759D01*
X131091D01*
G37*
G36*
X136091Y184759D02*Y180941D01*
X139909D01*
Y184759D01*
X136091D01*
G37*
G36*
Y179759D02*Y175941D01*
X139909D01*
Y179759D01*
X136091D01*
G37*
G36*
Y174759D02*Y170941D01*
X139909D01*
Y174759D01*
X136091D01*
G37*
G36*
Y169759D02*Y165941D01*
X139909D01*
Y169759D01*
X136091D01*
G37*
G36*
Y164759D02*Y160941D01*
X139909D01*
Y164759D01*
X136091D01*
G37*
G36*
Y159759D02*Y155941D01*
X139909D01*
Y159759D01*
X136091D01*
G37*
G36*
Y154759D02*Y150941D01*
X139909D01*
Y154759D01*
X136091D01*
G37*
G36*
Y149759D02*Y145941D01*
X139909D01*
Y149759D01*
X136091D01*
G37*
G36*
X141091Y184759D02*Y180941D01*
X144909D01*
Y184759D01*
X141091D01*
G37*
G36*
Y179759D02*Y175941D01*
X144909D01*
Y179759D01*
X141091D01*
G37*
G36*
Y174759D02*Y170941D01*
X144909D01*
Y174759D01*
X141091D01*
G37*
G36*
Y169759D02*Y165941D01*
X144909D01*
Y169759D01*
X141091D01*
G37*
G36*
X146091Y184759D02*Y180941D01*
X149909D01*
Y184759D01*
X146091D01*
G37*
G36*
Y179759D02*Y175941D01*
X149909D01*
Y179759D01*
X146091D01*
G37*
G36*
X151091Y184759D02*Y180941D01*
X154909D01*
Y184759D01*
X151091D01*
G37*
G36*
X141091Y164759D02*Y160941D01*
X144909D01*
Y164759D01*
X141091D01*
G37*
G36*
Y159759D02*Y155941D01*
X144909D01*
Y159759D01*
X141091D01*
G37*
G36*
Y154759D02*Y150941D01*
X144909D01*
Y154759D01*
X141091D01*
G37*
G36*
Y149759D02*Y145941D01*
X144909D01*
Y149759D01*
X141091D01*
G37*
G36*
X146091Y174759D02*Y170941D01*
X149909D01*
Y174759D01*
X146091D01*
G37*
G36*
Y169759D02*Y165941D01*
X149909D01*
Y169759D01*
X146091D01*
G37*
G36*
Y164759D02*Y160941D01*
X149909D01*
Y164759D01*
X146091D01*
G37*
G36*
Y159759D02*Y155941D01*
X149909D01*
Y159759D01*
X146091D01*
G37*
G36*
Y154759D02*Y150941D01*
X149909D01*
Y154759D01*
X146091D01*
G37*
G36*
Y149759D02*Y145941D01*
X149909D01*
Y149759D01*
X146091D01*
G37*
G36*
Y144759D02*Y140941D01*
X149909D01*
Y144759D01*
X146091D01*
G37*
G36*
X151091Y179759D02*Y175941D01*
X154909D01*
Y179759D01*
X151091D01*
G37*
G36*
Y174759D02*Y170941D01*
X154909D01*
Y174759D01*
X151091D01*
G37*
G36*
Y169759D02*Y165941D01*
X154909D01*
Y169759D01*
X151091D01*
G37*
G36*
Y164759D02*Y160941D01*
X154909D01*
Y164759D01*
X151091D01*
G37*
G36*
Y159759D02*Y155941D01*
X154909D01*
Y159759D01*
X151091D01*
G37*
G36*
Y154759D02*Y150941D01*
X154909D01*
Y154759D01*
X151091D01*
G37*
G36*
Y149759D02*Y145941D01*
X154909D01*
Y149759D01*
X151091D01*
G37*
G36*
X76091Y84759D02*Y80941D01*
X79909D01*
Y84759D01*
X76091D01*
G37*
G36*
Y79759D02*Y75941D01*
X79909D01*
Y79759D01*
X76091D01*
G37*
G36*
Y74759D02*Y70941D01*
X79909D01*
Y74759D01*
X76091D01*
G37*
G36*
X81091Y84759D02*Y80941D01*
X84909D01*
Y84759D01*
X81091D01*
G37*
G36*
Y79759D02*Y75941D01*
X84909D01*
Y79759D01*
X81091D01*
G37*
G36*
Y74759D02*Y70941D01*
X84909D01*
Y74759D01*
X81091D01*
G37*
G36*
X86091Y84759D02*Y80941D01*
X89909D01*
Y84759D01*
X86091D01*
G37*
G36*
X91091D02*Y80941D01*
X94909D01*
Y84759D01*
X91091D01*
G37*
G36*
Y79759D02*Y75941D01*
X94909D01*
Y79759D01*
X91091D01*
G37*
G36*
Y74759D02*Y70941D01*
X94909D01*
Y74759D01*
X91091D01*
G37*
G36*
X86091Y79759D02*Y75941D01*
X89909D01*
Y79759D01*
X86091D01*
G37*
G36*
Y74759D02*Y70941D01*
X89909D01*
Y74759D01*
X86091D01*
G37*
G36*
X91091Y89759D02*Y85941D01*
X94909D01*
Y89759D01*
X91091D01*
G37*
G36*
X81091Y69759D02*Y65941D01*
X84909D01*
Y69759D01*
X81091D01*
G37*
G36*
X86091D02*Y65941D01*
X89909D01*
Y69759D01*
X86091D01*
G37*
G36*
X91091D02*Y65941D01*
X94909D01*
Y69759D01*
X91091D01*
G37*
G36*
X96091D02*Y65941D01*
X99909D01*
Y69759D01*
X96091D01*
G37*
G36*
Y89759D02*Y85941D01*
X99909D01*
Y89759D01*
X96091D01*
G37*
G36*
Y84759D02*Y80941D01*
X99909D01*
Y84759D01*
X96091D01*
G37*
G36*
Y79759D02*Y75941D01*
X99909D01*
Y79759D01*
X96091D01*
G37*
G36*
Y74759D02*Y70941D01*
X99909D01*
Y74759D01*
X96091D01*
G37*
G36*
Y64759D02*Y60941D01*
X99909D01*
Y64759D01*
X96091D01*
G37*
G36*
Y59759D02*Y55941D01*
X99909D01*
Y59759D01*
X96091D01*
G37*
G36*
Y54759D02*Y50941D01*
X99909D01*
Y54759D01*
X96091D01*
G37*
G36*
Y49759D02*Y45941D01*
X99909D01*
Y49759D01*
X96091D01*
G37*
G36*
Y44759D02*Y40941D01*
X99909D01*
Y44759D01*
X96091D01*
G37*
G36*
Y39759D02*Y35941D01*
X99909D01*
Y39759D01*
X96091D01*
G37*
G36*
Y34759D02*Y30941D01*
X99909D01*
Y34759D01*
X96091D01*
G37*
G36*
Y29759D02*Y25941D01*
X99909D01*
Y29759D01*
X96091D01*
G37*
G36*
X81091Y64759D02*Y60941D01*
X84909D01*
Y64759D01*
X81091D01*
G37*
G36*
X86091D02*Y60941D01*
X89909D01*
Y64759D01*
X86091D01*
G37*
G36*
Y59759D02*Y55941D01*
X89909D01*
Y59759D01*
X86091D01*
G37*
G36*
Y54759D02*Y50941D01*
X89909D01*
Y54759D01*
X86091D01*
G37*
G36*
Y49759D02*Y45941D01*
X89909D01*
Y49759D01*
X86091D01*
G37*
G36*
Y44759D02*Y40941D01*
X89909D01*
Y44759D01*
X86091D01*
G37*
G36*
Y39759D02*Y35941D01*
X89909D01*
Y39759D01*
X86091D01*
G37*
G36*
Y34759D02*Y30941D01*
X89909D01*
Y34759D01*
X86091D01*
G37*
G36*
Y29759D02*Y25941D01*
X89909D01*
Y29759D01*
X86091D01*
G37*
G36*
X76091Y69759D02*Y65941D01*
X79909D01*
Y69759D01*
X76091D01*
G37*
G36*
Y64759D02*Y60941D01*
X79909D01*
Y64759D01*
X76091D01*
G37*
G36*
Y59759D02*Y55941D01*
X79909D01*
Y59759D01*
X76091D01*
G37*
G36*
X91091Y64759D02*Y60941D01*
X94909D01*
Y64759D01*
X91091D01*
G37*
G36*
Y59759D02*Y55941D01*
X94909D01*
Y59759D01*
X91091D01*
G37*
G36*
Y54759D02*Y50941D01*
X94909D01*
Y54759D01*
X91091D01*
G37*
G36*
Y49759D02*Y45941D01*
X94909D01*
Y49759D01*
X91091D01*
G37*
G36*
Y44759D02*Y40941D01*
X94909D01*
Y44759D01*
X91091D01*
G37*
G36*
Y39759D02*Y35941D01*
X94909D01*
Y39759D01*
X91091D01*
G37*
G36*
Y34759D02*Y30941D01*
X94909D01*
Y34759D01*
X91091D01*
G37*
G36*
Y29759D02*Y25941D01*
X94909D01*
Y29759D01*
X91091D01*
G37*
G36*
X106091Y64759D02*Y60941D01*
X109909D01*
Y64759D01*
X106091D01*
G37*
G36*
Y59759D02*Y55941D01*
X109909D01*
Y59759D01*
X106091D01*
G37*
G36*
Y54759D02*Y50941D01*
X109909D01*
Y54759D01*
X106091D01*
G37*
G36*
Y49759D02*Y45941D01*
X109909D01*
Y49759D01*
X106091D01*
G37*
G36*
Y44759D02*Y40941D01*
X109909D01*
Y44759D01*
X106091D01*
G37*
G36*
Y39759D02*Y35941D01*
X109909D01*
Y39759D01*
X106091D01*
G37*
G36*
Y34759D02*Y30941D01*
X109909D01*
Y34759D01*
X106091D01*
G37*
G36*
Y29759D02*Y25941D01*
X109909D01*
Y29759D01*
X106091D01*
G37*
G36*
X101091Y89759D02*Y85941D01*
X104909D01*
Y89759D01*
X101091D01*
G37*
G36*
Y84759D02*Y80941D01*
X104909D01*
Y84759D01*
X101091D01*
G37*
G36*
Y79759D02*Y75941D01*
X104909D01*
Y79759D01*
X101091D01*
G37*
G36*
Y74759D02*Y70941D01*
X104909D01*
Y74759D01*
X101091D01*
G37*
G36*
Y69759D02*Y65941D01*
X104909D01*
Y69759D01*
X101091D01*
G37*
G36*
Y64759D02*Y60941D01*
X104909D01*
Y64759D01*
X101091D01*
G37*
G36*
Y59759D02*Y55941D01*
X104909D01*
Y59759D01*
X101091D01*
G37*
G36*
Y54759D02*Y50941D01*
X104909D01*
Y54759D01*
X101091D01*
G37*
G36*
Y49759D02*Y45941D01*
X104909D01*
Y49759D01*
X101091D01*
G37*
G36*
Y44759D02*Y40941D01*
X104909D01*
Y44759D01*
X101091D01*
G37*
G36*
Y39759D02*Y35941D01*
X104909D01*
Y39759D01*
X101091D01*
G37*
G36*
Y34759D02*Y30941D01*
X104909D01*
Y34759D01*
X101091D01*
G37*
G36*
Y29759D02*Y25941D01*
X104909D01*
Y29759D01*
X101091D01*
G37*
G36*
X106091Y84759D02*Y80941D01*
X109909D01*
Y84759D01*
X106091D01*
G37*
G36*
X111091D02*Y80941D01*
X114909D01*
Y84759D01*
X111091D01*
G37*
G36*
Y79759D02*Y75941D01*
X114909D01*
Y79759D01*
X111091D01*
G37*
G36*
X116091Y84759D02*Y80941D01*
X119909D01*
Y84759D01*
X116091D01*
G37*
G36*
X106091Y79759D02*Y75941D01*
X109909D01*
Y79759D01*
X106091D01*
G37*
G36*
Y74759D02*Y70941D01*
X109909D01*
Y74759D01*
X106091D01*
G37*
G36*
Y69759D02*Y65941D01*
X109909D01*
Y69759D01*
X106091D01*
G37*
G36*
X116091Y79759D02*Y75941D01*
X119909D01*
Y79759D01*
X116091D01*
G37*
G36*
Y74759D02*Y70941D01*
X119909D01*
Y74759D01*
X116091D01*
G37*
G36*
Y69759D02*Y65941D01*
X119909D01*
Y69759D01*
X116091D01*
G37*
G36*
X111091Y54759D02*Y50941D01*
X114909D01*
Y54759D01*
X111091D01*
G37*
G36*
Y49759D02*Y45941D01*
X114909D01*
Y49759D01*
X111091D01*
G37*
G36*
Y44759D02*Y40941D01*
X114909D01*
Y44759D01*
X111091D01*
G37*
G36*
Y39759D02*Y35941D01*
X114909D01*
Y39759D01*
X111091D01*
G37*
G36*
Y34759D02*Y30941D01*
X114909D01*
Y34759D01*
X111091D01*
G37*
G36*
Y29759D02*Y25941D01*
X114909D01*
Y29759D01*
X111091D01*
G37*
G36*
X116091Y64759D02*Y60941D01*
X119909D01*
Y64759D01*
X116091D01*
G37*
G36*
Y59759D02*Y55941D01*
X119909D01*
Y59759D01*
X116091D01*
G37*
G36*
Y54759D02*Y50941D01*
X119909D01*
Y54759D01*
X116091D01*
G37*
G36*
Y49759D02*Y45941D01*
X119909D01*
Y49759D01*
X116091D01*
G37*
G36*
Y44759D02*Y40941D01*
X119909D01*
Y44759D01*
X116091D01*
G37*
G36*
Y39759D02*Y35941D01*
X119909D01*
Y39759D01*
X116091D01*
G37*
G36*
Y34759D02*Y30941D01*
X119909D01*
Y34759D01*
X116091D01*
G37*
G36*
Y29759D02*Y25941D01*
X119909D01*
Y29759D01*
X116091D01*
G37*
G36*
X111091Y74759D02*Y70941D01*
X114909D01*
Y74759D01*
X111091D01*
G37*
G36*
Y69759D02*Y65941D01*
X114909D01*
Y69759D01*
X111091D01*
G37*
G36*
Y64759D02*Y60941D01*
X114909D01*
Y64759D01*
X111091D01*
G37*
G36*
Y59759D02*Y55941D01*
X114909D01*
Y59759D01*
X111091D01*
G37*
G36*
X121091Y69759D02*Y65941D01*
X124909D01*
Y69759D01*
X121091D01*
G37*
G36*
Y64759D02*Y60941D01*
X124909D01*
Y64759D01*
X121091D01*
G37*
G36*
Y59759D02*Y55941D01*
X124909D01*
Y59759D01*
X121091D01*
G37*
G36*
Y54759D02*Y50941D01*
X124909D01*
Y54759D01*
X121091D01*
G37*
G36*
Y49759D02*Y45941D01*
X124909D01*
Y49759D01*
X121091D01*
G37*
G36*
Y44759D02*Y40941D01*
X124909D01*
Y44759D01*
X121091D01*
G37*
G36*
Y39759D02*Y35941D01*
X124909D01*
Y39759D01*
X121091D01*
G37*
G36*
Y34759D02*Y30941D01*
X124909D01*
Y34759D01*
X121091D01*
G37*
G36*
Y29759D02*Y25941D01*
X124909D01*
Y29759D01*
X121091D01*
G37*
G36*
X126091Y74759D02*Y70941D01*
X129909D01*
Y74759D01*
X126091D01*
G37*
G36*
Y69759D02*Y65941D01*
X129909D01*
Y69759D01*
X126091D01*
G37*
G36*
Y64759D02*Y60941D01*
X129909D01*
Y64759D01*
X126091D01*
G37*
G36*
Y59759D02*Y55941D01*
X129909D01*
Y59759D01*
X126091D01*
G37*
G36*
Y54759D02*Y50941D01*
X129909D01*
Y54759D01*
X126091D01*
G37*
G36*
Y49759D02*Y45941D01*
X129909D01*
Y49759D01*
X126091D01*
G37*
G36*
Y44759D02*Y40941D01*
X129909D01*
Y44759D01*
X126091D01*
G37*
G36*
Y39759D02*Y35941D01*
X129909D01*
Y39759D01*
X126091D01*
G37*
G36*
Y34759D02*Y30941D01*
X129909D01*
Y34759D01*
X126091D01*
G37*
G36*
Y29759D02*Y25941D01*
X129909D01*
Y29759D01*
X126091D01*
G37*
G36*
X121091Y89759D02*Y85941D01*
X124909D01*
Y89759D01*
X121091D01*
G37*
G36*
X131091D02*Y85941D01*
X134909D01*
Y89759D01*
X131091D01*
G37*
G36*
X121091Y84759D02*Y80941D01*
X124909D01*
Y84759D01*
X121091D01*
G37*
G36*
Y79759D02*Y75941D01*
X124909D01*
Y79759D01*
X121091D01*
G37*
G36*
Y74759D02*Y70941D01*
X124909D01*
Y74759D01*
X121091D01*
G37*
G36*
X126091Y89759D02*Y85941D01*
X129909D01*
Y89759D01*
X126091D01*
G37*
G36*
Y84759D02*Y80941D01*
X129909D01*
Y84759D01*
X126091D01*
G37*
G36*
Y79759D02*Y75941D01*
X129909D01*
Y79759D01*
X126091D01*
G37*
G36*
X131091Y84759D02*Y80941D01*
X134909D01*
Y84759D01*
X131091D01*
G37*
G36*
X136091Y89759D02*Y85941D01*
X139909D01*
Y89759D01*
X136091D01*
G37*
G36*
Y84759D02*Y80941D01*
X139909D01*
Y84759D01*
X136091D01*
G37*
G36*
Y79759D02*Y75941D01*
X139909D01*
Y79759D01*
X136091D01*
G37*
G36*
Y74759D02*Y70941D01*
X139909D01*
Y74759D01*
X136091D01*
G37*
G36*
X131091Y59759D02*Y55941D01*
X134909D01*
Y59759D01*
X131091D01*
G37*
G36*
Y54759D02*Y50941D01*
X134909D01*
Y54759D01*
X131091D01*
G37*
G36*
Y49759D02*Y45941D01*
X134909D01*
Y49759D01*
X131091D01*
G37*
G36*
Y44759D02*Y40941D01*
X134909D01*
Y44759D01*
X131091D01*
G37*
G36*
Y39759D02*Y35941D01*
X134909D01*
Y39759D01*
X131091D01*
G37*
G36*
Y34759D02*Y30941D01*
X134909D01*
Y34759D01*
X131091D01*
G37*
G36*
Y29759D02*Y25941D01*
X134909D01*
Y29759D01*
X131091D01*
G37*
G36*
Y79759D02*Y75941D01*
X134909D01*
Y79759D01*
X131091D01*
G37*
G36*
Y74759D02*Y70941D01*
X134909D01*
Y74759D01*
X131091D01*
G37*
G36*
Y69759D02*Y65941D01*
X134909D01*
Y69759D01*
X131091D01*
G37*
G36*
Y64759D02*Y60941D01*
X134909D01*
Y64759D01*
X131091D01*
G37*
G36*
X136091Y69759D02*Y65941D01*
X139909D01*
Y69759D01*
X136091D01*
G37*
G36*
Y64759D02*Y60941D01*
X139909D01*
Y64759D01*
X136091D01*
G37*
G36*
Y59759D02*Y55941D01*
X139909D01*
Y59759D01*
X136091D01*
G37*
G36*
Y54759D02*Y50941D01*
X139909D01*
Y54759D01*
X136091D01*
G37*
G36*
Y49759D02*Y45941D01*
X139909D01*
Y49759D01*
X136091D01*
G37*
G36*
Y44759D02*Y40941D01*
X139909D01*
Y44759D01*
X136091D01*
G37*
G36*
Y39759D02*Y35941D01*
X139909D01*
Y39759D01*
X136091D01*
G37*
G36*
Y34759D02*Y30941D01*
X139909D01*
Y34759D01*
X136091D01*
G37*
G36*
Y29759D02*Y25941D01*
X139909D01*
Y29759D01*
X136091D01*
G37*
G36*
X141091Y84759D02*Y80941D01*
X144909D01*
Y84759D01*
X141091D01*
G37*
G36*
Y79759D02*Y75941D01*
X144909D01*
Y79759D01*
X141091D01*
G37*
G36*
Y74759D02*Y70941D01*
X144909D01*
Y74759D01*
X141091D01*
G37*
G36*
Y69759D02*Y65941D01*
X144909D01*
Y69759D01*
X141091D01*
G37*
G36*
Y64759D02*Y60941D01*
X144909D01*
Y64759D01*
X141091D01*
G37*
G36*
Y59759D02*Y55941D01*
X144909D01*
Y59759D01*
X141091D01*
G37*
G36*
Y54759D02*Y50941D01*
X144909D01*
Y54759D01*
X141091D01*
G37*
G36*
Y49759D02*Y45941D01*
X144909D01*
Y49759D01*
X141091D01*
G37*
G36*
Y44759D02*Y40941D01*
X144909D01*
Y44759D01*
X141091D01*
G37*
G36*
Y39759D02*Y35941D01*
X144909D01*
Y39759D01*
X141091D01*
G37*
G36*
Y34759D02*Y30941D01*
X144909D01*
Y34759D01*
X141091D01*
G37*
G36*
Y29759D02*Y25941D01*
X144909D01*
Y29759D01*
X141091D01*
G37*
G36*
Y89759D02*Y85941D01*
X144909D01*
Y89759D01*
X141091D01*
G37*
G36*
X146091D02*Y85941D01*
X149909D01*
Y89759D01*
X146091D01*
G37*
G36*
Y84759D02*Y80941D01*
X149909D01*
Y84759D01*
X146091D01*
G37*
G36*
Y79759D02*Y75941D01*
X149909D01*
Y79759D01*
X146091D01*
G37*
G36*
Y74759D02*Y70941D01*
X149909D01*
Y74759D01*
X146091D01*
G37*
G36*
Y69759D02*Y65941D01*
X149909D01*
Y69759D01*
X146091D01*
G37*
G36*
Y64759D02*Y60941D01*
X149909D01*
Y64759D01*
X146091D01*
G37*
G36*
Y59759D02*Y55941D01*
X149909D01*
Y59759D01*
X146091D01*
G37*
G36*
Y54759D02*Y50941D01*
X149909D01*
Y54759D01*
X146091D01*
G37*
G36*
Y49759D02*Y45941D01*
X149909D01*
Y49759D01*
X146091D01*
G37*
G36*
Y44759D02*Y40941D01*
X149909D01*
Y44759D01*
X146091D01*
G37*
G36*
Y39759D02*Y35941D01*
X149909D01*
Y39759D01*
X146091D01*
G37*
G36*
Y34759D02*Y30941D01*
X149909D01*
Y34759D01*
X146091D01*
G37*
G36*
Y29759D02*Y25941D01*
X149909D01*
Y29759D01*
X146091D01*
G37*
G36*
X116091Y149759D02*Y145941D01*
X119909D01*
Y149759D01*
X116091D01*
G37*
G36*
Y144759D02*Y140941D01*
X119909D01*
Y144759D01*
X116091D01*
G37*
G36*
Y139759D02*Y135941D01*
X119909D01*
Y139759D01*
X116091D01*
G37*
G36*
Y134759D02*Y130941D01*
X119909D01*
Y134759D01*
X116091D01*
G37*
G36*
Y129759D02*Y125941D01*
X119909D01*
Y129759D01*
X116091D01*
G37*
G36*
Y124759D02*Y120941D01*
X119909D01*
Y124759D01*
X116091D01*
G37*
G36*
Y119759D02*Y115941D01*
X119909D01*
Y119759D01*
X116091D01*
G37*
G36*
Y114759D02*Y110941D01*
X119909D01*
Y114759D01*
X116091D01*
G37*
G36*
Y109759D02*Y105941D01*
X119909D01*
Y109759D01*
X116091D01*
G37*
G36*
Y104759D02*Y100941D01*
X119909D01*
Y104759D01*
X116091D01*
G37*
G36*
Y99759D02*Y95941D01*
X119909D01*
Y99759D01*
X116091D01*
G37*
G36*
Y94759D02*Y90941D01*
X119909D01*
Y94759D01*
X116091D01*
G37*
G36*
Y89759D02*Y85941D01*
X119909D01*
Y89759D01*
X116091D01*
G37*
G36*
Y169759D02*Y165941D01*
X119909D01*
Y169759D01*
X116091D01*
G37*
G36*
Y164759D02*Y160941D01*
X119909D01*
Y164759D01*
X116091D01*
G37*
G36*
Y159759D02*Y155941D01*
X119909D01*
Y159759D01*
X116091D01*
G37*
G36*
Y154759D02*Y150941D01*
X119909D01*
Y154759D01*
X116091D01*
G37*
G36*
X121091Y169759D02*Y165941D01*
X124909D01*
Y169759D01*
X121091D01*
G37*
G36*
Y164759D02*Y160941D01*
X124909D01*
Y164759D01*
X121091D01*
G37*
G36*
Y159759D02*Y155941D01*
X124909D01*
Y159759D01*
X121091D01*
G37*
G36*
Y154759D02*Y150941D01*
X124909D01*
Y154759D01*
X121091D01*
G37*
G36*
Y149759D02*Y145941D01*
X124909D01*
Y149759D01*
X121091D01*
G37*
G36*
Y144759D02*Y140941D01*
X124909D01*
Y144759D01*
X121091D01*
G37*
G36*
Y139759D02*Y135941D01*
X124909D01*
Y139759D01*
X121091D01*
G37*
G36*
Y134759D02*Y130941D01*
X124909D01*
Y134759D01*
X121091D01*
G37*
G36*
Y129759D02*Y125941D01*
X124909D01*
Y129759D01*
X121091D01*
G37*
G36*
Y124759D02*Y120941D01*
X124909D01*
Y124759D01*
X121091D01*
G37*
G36*
Y119759D02*Y115941D01*
X124909D01*
Y119759D01*
X121091D01*
G37*
G36*
Y114759D02*Y110941D01*
X124909D01*
Y114759D01*
X121091D01*
G37*
G36*
Y109759D02*Y105941D01*
X124909D01*
Y109759D01*
X121091D01*
G37*
G36*
Y104759D02*Y100941D01*
X124909D01*
Y104759D01*
X121091D01*
G37*
G36*
Y99759D02*Y95941D01*
X124909D01*
Y99759D01*
X121091D01*
G37*
G36*
Y94759D02*Y90941D01*
X124909D01*
Y94759D01*
X121091D01*
G37*
G36*
X126091Y164759D02*Y160941D01*
X129909D01*
Y164759D01*
X126091D01*
G37*
G36*
Y159759D02*Y155941D01*
X129909D01*
Y159759D01*
X126091D01*
G37*
G36*
Y154759D02*Y150941D01*
X129909D01*
Y154759D01*
X126091D01*
G37*
G36*
Y149759D02*Y145941D01*
X129909D01*
Y149759D01*
X126091D01*
G37*
G36*
Y144759D02*Y140941D01*
X129909D01*
Y144759D01*
X126091D01*
G37*
G36*
Y139759D02*Y135941D01*
X129909D01*
Y139759D01*
X126091D01*
G37*
G36*
Y134759D02*Y130941D01*
X129909D01*
Y134759D01*
X126091D01*
G37*
G36*
Y129759D02*Y125941D01*
X129909D01*
Y129759D01*
X126091D01*
G37*
G36*
Y124759D02*Y120941D01*
X129909D01*
Y124759D01*
X126091D01*
G37*
G36*
Y119759D02*Y115941D01*
X129909D01*
Y119759D01*
X126091D01*
G37*
G36*
Y114759D02*Y110941D01*
X129909D01*
Y114759D01*
X126091D01*
G37*
G36*
Y109759D02*Y105941D01*
X129909D01*
Y109759D01*
X126091D01*
G37*
G36*
Y104759D02*Y100941D01*
X129909D01*
Y104759D01*
X126091D01*
G37*
G36*
Y99759D02*Y95941D01*
X129909D01*
Y99759D01*
X126091D01*
G37*
G36*
Y94759D02*Y90941D01*
X129909D01*
Y94759D01*
X126091D01*
G37*
G36*
X131091Y149759D02*Y145941D01*
X134909D01*
Y149759D01*
X131091D01*
G37*
G36*
Y144759D02*Y140941D01*
X134909D01*
Y144759D01*
X131091D01*
G37*
G36*
Y139759D02*Y135941D01*
X134909D01*
Y139759D01*
X131091D01*
G37*
G36*
Y134759D02*Y130941D01*
X134909D01*
Y134759D01*
X131091D01*
G37*
G36*
Y129759D02*Y125941D01*
X134909D01*
Y129759D01*
X131091D01*
G37*
G36*
Y124759D02*Y120941D01*
X134909D01*
Y124759D01*
X131091D01*
G37*
G36*
Y119759D02*Y115941D01*
X134909D01*
Y119759D01*
X131091D01*
G37*
G36*
Y114759D02*Y110941D01*
X134909D01*
Y114759D01*
X131091D01*
G37*
G36*
Y109759D02*Y105941D01*
X134909D01*
Y109759D01*
X131091D01*
G37*
G36*
Y104759D02*Y100941D01*
X134909D01*
Y104759D01*
X131091D01*
G37*
G36*
Y99759D02*Y95941D01*
X134909D01*
Y99759D01*
X131091D01*
G37*
G36*
Y94759D02*Y90941D01*
X134909D01*
Y94759D01*
X131091D01*
G37*
G36*
X136091Y144759D02*Y140941D01*
X139909D01*
Y144759D01*
X136091D01*
G37*
G36*
Y139759D02*Y135941D01*
X139909D01*
Y139759D01*
X136091D01*
G37*
G36*
Y134759D02*Y130941D01*
X139909D01*
Y134759D01*
X136091D01*
G37*
G36*
Y129759D02*Y125941D01*
X139909D01*
Y129759D01*
X136091D01*
G37*
G36*
Y124759D02*Y120941D01*
X139909D01*
Y124759D01*
X136091D01*
G37*
G36*
Y119759D02*Y115941D01*
X139909D01*
Y119759D01*
X136091D01*
G37*
G36*
Y114759D02*Y110941D01*
X139909D01*
Y114759D01*
X136091D01*
G37*
G36*
Y109759D02*Y105941D01*
X139909D01*
Y109759D01*
X136091D01*
G37*
G36*
Y104759D02*Y100941D01*
X139909D01*
Y104759D01*
X136091D01*
G37*
G36*
Y99759D02*Y95941D01*
X139909D01*
Y99759D01*
X136091D01*
G37*
G36*
Y94759D02*Y90941D01*
X139909D01*
Y94759D01*
X136091D01*
G37*
G36*
X141091Y144759D02*Y140941D01*
X144909D01*
Y144759D01*
X141091D01*
G37*
G36*
Y139759D02*Y135941D01*
X144909D01*
Y139759D01*
X141091D01*
G37*
G36*
Y134759D02*Y130941D01*
X144909D01*
Y134759D01*
X141091D01*
G37*
G36*
Y129759D02*Y125941D01*
X144909D01*
Y129759D01*
X141091D01*
G37*
G36*
Y124759D02*Y120941D01*
X144909D01*
Y124759D01*
X141091D01*
G37*
G36*
Y119759D02*Y115941D01*
X144909D01*
Y119759D01*
X141091D01*
G37*
G36*
Y114759D02*Y110941D01*
X144909D01*
Y114759D01*
X141091D01*
G37*
G36*
Y109759D02*Y105941D01*
X144909D01*
Y109759D01*
X141091D01*
G37*
G36*
Y104759D02*Y100941D01*
X144909D01*
Y104759D01*
X141091D01*
G37*
G36*
Y99759D02*Y95941D01*
X144909D01*
Y99759D01*
X141091D01*
G37*
G36*
Y94759D02*Y90941D01*
X144909D01*
Y94759D01*
X141091D01*
G37*
G36*
X146091Y139759D02*Y135941D01*
X149909D01*
Y139759D01*
X146091D01*
G37*
G36*
Y134759D02*Y130941D01*
X149909D01*
Y134759D01*
X146091D01*
G37*
G36*
Y129759D02*Y125941D01*
X149909D01*
Y129759D01*
X146091D01*
G37*
G36*
Y124759D02*Y120941D01*
X149909D01*
Y124759D01*
X146091D01*
G37*
G36*
Y119759D02*Y115941D01*
X149909D01*
Y119759D01*
X146091D01*
G37*
G36*
Y114759D02*Y110941D01*
X149909D01*
Y114759D01*
X146091D01*
G37*
G36*
Y109759D02*Y105941D01*
X149909D01*
Y109759D01*
X146091D01*
G37*
G36*
Y104759D02*Y100941D01*
X149909D01*
Y104759D01*
X146091D01*
G37*
G36*
Y99759D02*Y95941D01*
X149909D01*
Y99759D01*
X146091D01*
G37*
G36*
Y94759D02*Y90941D01*
X149909D01*
Y94759D01*
X146091D01*
G37*
G36*
X151091Y144759D02*Y140941D01*
X154909D01*
Y144759D01*
X151091D01*
G37*
G36*
Y139759D02*Y135941D01*
X154909D01*
Y139759D01*
X151091D01*
G37*
G36*
Y134759D02*Y130941D01*
X154909D01*
Y134759D01*
X151091D01*
G37*
G36*
Y129759D02*Y125941D01*
X154909D01*
Y129759D01*
X151091D01*
G37*
G36*
Y124759D02*Y120941D01*
X154909D01*
Y124759D01*
X151091D01*
G37*
G36*
Y119759D02*Y115941D01*
X154909D01*
Y119759D01*
X151091D01*
G37*
G36*
Y114759D02*Y110941D01*
X154909D01*
Y114759D01*
X151091D01*
G37*
G36*
Y109759D02*Y105941D01*
X154909D01*
Y109759D01*
X151091D01*
G37*
G36*
Y104759D02*Y100941D01*
X154909D01*
Y104759D01*
X151091D01*
G37*
G36*
Y99759D02*Y95941D01*
X154909D01*
Y99759D01*
X151091D01*
G37*
G36*
Y94759D02*Y90941D01*
X154909D01*
Y94759D01*
X151091D01*
G37*
G36*
Y89759D02*Y85941D01*
X154909D01*
Y89759D01*
X151091D01*
G37*
G36*
Y84759D02*Y80941D01*
X154909D01*
Y84759D01*
X151091D01*
G37*
G36*
Y79759D02*Y75941D01*
X154909D01*
Y79759D01*
X151091D01*
G37*
G36*
Y74759D02*Y70941D01*
X154909D01*
Y74759D01*
X151091D01*
G37*
G36*
Y69759D02*Y65941D01*
X154909D01*
Y69759D01*
X151091D01*
G37*
G36*
Y64759D02*Y60941D01*
X154909D01*
Y64759D01*
X151091D01*
G37*
G36*
Y59759D02*Y55941D01*
X154909D01*
Y59759D01*
X151091D01*
G37*
G36*
Y54759D02*Y50941D01*
X154909D01*
Y54759D01*
X151091D01*
G37*
G36*
Y49759D02*Y45941D01*
X154909D01*
Y49759D01*
X151091D01*
G37*
G36*
Y44759D02*Y40941D01*
X154909D01*
Y44759D01*
X151091D01*
G37*
G36*
Y39759D02*Y35941D01*
X154909D01*
Y39759D01*
X151091D01*
G37*
G36*
Y34759D02*Y30941D01*
X154909D01*
Y34759D01*
X151091D01*
G37*
G36*
Y29759D02*Y25941D01*
X154909D01*
Y29759D01*
X151091D01*
G37*
G36*
X76091Y139759D02*Y135941D01*
X79909D01*
Y139759D01*
X76091D01*
G37*
G36*
Y134759D02*Y130941D01*
X79909D01*
Y134759D01*
X76091D01*
G37*
G36*
Y129759D02*Y125941D01*
X79909D01*
Y129759D01*
X76091D01*
G37*
G36*
Y124759D02*Y120941D01*
X79909D01*
Y124759D01*
X76091D01*
G37*
G36*
Y119759D02*Y115941D01*
X79909D01*
Y119759D01*
X76091D01*
G37*
G36*
Y114759D02*Y110941D01*
X79909D01*
Y114759D01*
X76091D01*
G37*
G36*
Y109759D02*Y105941D01*
X79909D01*
Y109759D01*
X76091D01*
G37*
G36*
Y104759D02*Y100941D01*
X79909D01*
Y104759D01*
X76091D01*
G37*
G36*
Y99759D02*Y95941D01*
X79909D01*
Y99759D01*
X76091D01*
G37*
G36*
Y94759D02*Y90941D01*
X79909D01*
Y94759D01*
X76091D01*
G37*
G36*
Y89759D02*Y85941D01*
X79909D01*
Y89759D01*
X76091D01*
G37*
G36*
X81091Y169759D02*Y165941D01*
X84909D01*
Y169759D01*
X81091D01*
G37*
G36*
Y164759D02*Y160941D01*
X84909D01*
Y164759D01*
X81091D01*
G37*
G36*
Y159759D02*Y155941D01*
X84909D01*
Y159759D01*
X81091D01*
G37*
G36*
Y154759D02*Y150941D01*
X84909D01*
Y154759D01*
X81091D01*
G37*
G36*
Y149759D02*Y145941D01*
X84909D01*
Y149759D01*
X81091D01*
G37*
G36*
Y144759D02*Y140941D01*
X84909D01*
Y144759D01*
X81091D01*
G37*
G36*
Y139759D02*Y135941D01*
X84909D01*
Y139759D01*
X81091D01*
G37*
G36*
Y134759D02*Y130941D01*
X84909D01*
Y134759D01*
X81091D01*
G37*
G36*
Y129759D02*Y125941D01*
X84909D01*
Y129759D01*
X81091D01*
G37*
G36*
Y124759D02*Y120941D01*
X84909D01*
Y124759D01*
X81091D01*
G37*
G36*
Y119759D02*Y115941D01*
X84909D01*
Y119759D01*
X81091D01*
G37*
G36*
Y114759D02*Y110941D01*
X84909D01*
Y114759D01*
X81091D01*
G37*
G36*
Y109759D02*Y105941D01*
X84909D01*
Y109759D01*
X81091D01*
G37*
G36*
Y104759D02*Y100941D01*
X84909D01*
Y104759D01*
X81091D01*
G37*
G36*
Y99759D02*Y95941D01*
X84909D01*
Y99759D01*
X81091D01*
G37*
G36*
Y94759D02*Y90941D01*
X84909D01*
Y94759D01*
X81091D01*
G37*
G36*
Y89759D02*Y85941D01*
X84909D01*
Y89759D01*
X81091D01*
G37*
G36*
X86091Y144759D02*Y140941D01*
X89909D01*
Y144759D01*
X86091D01*
G37*
G36*
Y139759D02*Y135941D01*
X89909D01*
Y139759D01*
X86091D01*
G37*
G36*
Y134759D02*Y130941D01*
X89909D01*
Y134759D01*
X86091D01*
G37*
G36*
Y129759D02*Y125941D01*
X89909D01*
Y129759D01*
X86091D01*
G37*
G36*
Y124759D02*Y120941D01*
X89909D01*
Y124759D01*
X86091D01*
G37*
G36*
Y119759D02*Y115941D01*
X89909D01*
Y119759D01*
X86091D01*
G37*
G36*
Y114759D02*Y110941D01*
X89909D01*
Y114759D01*
X86091D01*
G37*
G36*
Y109759D02*Y105941D01*
X89909D01*
Y109759D01*
X86091D01*
G37*
G36*
Y104759D02*Y100941D01*
X89909D01*
Y104759D01*
X86091D01*
G37*
G36*
Y99759D02*Y95941D01*
X89909D01*
Y99759D01*
X86091D01*
G37*
G36*
Y94759D02*Y90941D01*
X89909D01*
Y94759D01*
X86091D01*
G37*
G36*
Y89759D02*Y85941D01*
X89909D01*
Y89759D01*
X86091D01*
G37*
G54D16*X66142Y153149D03*
G54D11*G36*
X76091Y159759D02*Y155941D01*
X79909D01*
Y159759D01*
X76091D01*
G37*
G36*
Y154759D02*Y150941D01*
X79909D01*
Y154759D01*
X76091D01*
G37*
G36*
Y149759D02*Y145941D01*
X79909D01*
Y149759D01*
X76091D01*
G37*
G36*
Y144759D02*Y140941D01*
X79909D01*
Y144759D01*
X76091D01*
G37*
G54D17*X68898Y162204D03*
G54D11*G36*
X76091Y184759D02*Y180941D01*
X79909D01*
Y184759D01*
X76091D01*
G37*
G36*
Y179759D02*Y175941D01*
X79909D01*
Y179759D01*
X76091D01*
G37*
G36*
X81091D02*Y175941D01*
X84909D01*
Y179759D01*
X81091D01*
G37*
G36*
Y174759D02*Y170941D01*
X84909D01*
Y174759D01*
X81091D01*
G37*
G36*
Y184759D02*Y180941D01*
X84909D01*
Y184759D01*
X81091D01*
G37*
G36*
X86091D02*Y180941D01*
X89909D01*
Y184759D01*
X86091D01*
G37*
G54D17*X70079Y175590D03*
G54D11*G36*
X76091Y174759D02*Y170941D01*
X79909D01*
Y174759D01*
X76091D01*
G37*
G36*
Y169759D02*Y165941D01*
X79909D01*
Y169759D01*
X76091D01*
G37*
G36*
Y164759D02*Y160941D01*
X79909D01*
Y164759D01*
X76091D01*
G37*
G36*
X86091Y179759D02*Y175941D01*
X89909D01*
Y179759D01*
X86091D01*
G37*
G36*
Y174759D02*Y170941D01*
X89909D01*
Y174759D01*
X86091D01*
G37*
G36*
Y169759D02*Y165941D01*
X89909D01*
Y169759D01*
X86091D01*
G37*
G36*
Y164759D02*Y160941D01*
X89909D01*
Y164759D01*
X86091D01*
G37*
G36*
Y159759D02*Y155941D01*
X89909D01*
Y159759D01*
X86091D01*
G37*
G36*
Y154759D02*Y150941D01*
X89909D01*
Y154759D01*
X86091D01*
G37*
G36*
Y149759D02*Y145941D01*
X89909D01*
Y149759D01*
X86091D01*
G37*
G54D17*X17500Y70515D03*
X20500Y81515D03*
Y86515D03*
X17500Y75515D03*
X36614Y39763D03*
X51000Y35515D03*
X34000Y32515D03*
X24500Y32015D03*
X19500Y47515D03*
G54D16*X14173Y18110D03*
G54D17*X48000Y167515D03*
Y172515D03*
X54000Y154015D03*
X18000Y150515D03*
X11500Y138015D03*
G54D18*X11811Y187401D03*
X22835D03*
X33858D03*
X44488D03*
X55512D03*
G54D16*X26000Y96515D03*
G54D17*X23500Y131515D03*
G54D16*X38000Y122515D03*
G54D17*X42500Y115015D03*
X55000Y100015D03*
Y105015D03*
X42500D03*
Y110515D03*
X49000Y100015D03*
Y105015D03*
Y110515D03*
X55000D03*
Y116015D03*
Y121015D03*
X49000Y116015D03*
Y121015D03*
X60000Y47515D03*
Y38515D03*
G54D18*X55512Y19685D03*
G54D17*X58661Y12992D03*
G54D11*G36*
X76091Y49759D02*Y45941D01*
X79909D01*
Y49759D01*
X76091D01*
G37*
G36*
Y44759D02*Y40941D01*
X79909D01*
Y44759D01*
X76091D01*
G37*
G36*
Y39759D02*Y35941D01*
X79909D01*
Y39759D01*
X76091D01*
G37*
G36*
Y34759D02*Y30941D01*
X79909D01*
Y34759D01*
X76091D01*
G37*
G36*
Y29759D02*Y25941D01*
X79909D01*
Y29759D01*
X76091D01*
G37*
G36*
Y54759D02*Y50941D01*
X79909D01*
Y54759D01*
X76091D01*
G37*
G36*
X81091D02*Y50941D01*
X84909D01*
Y54759D01*
X81091D01*
G37*
G36*
Y49759D02*Y45941D01*
X84909D01*
Y49759D01*
X81091D01*
G37*
G36*
Y59759D02*Y55941D01*
X84909D01*
Y59759D01*
X81091D01*
G37*
G36*
Y44759D02*Y40941D01*
X84909D01*
Y44759D01*
X81091D01*
G37*
G36*
Y39759D02*Y35941D01*
X84909D01*
Y39759D01*
X81091D01*
G37*
G36*
Y34759D02*Y30941D01*
X84909D01*
Y34759D01*
X81091D01*
G37*
G36*
Y29759D02*Y25941D01*
X84909D01*
Y29759D01*
X81091D01*
G37*
G54D19*X6200Y41615D02*Y38415D01*
X17800Y41615D02*Y38415D01*
G54D20*X28969Y42471D02*X30937D01*
X28969Y36959D02*X30937D01*
X42749D02*X44717D01*
X42749Y42471D02*X44717D01*
G54D21*X21162Y15354D02*X22146D01*
X21162Y10236D02*X22146D01*
G54D22*X32283Y15110D02*Y10874D01*
X44003Y15110D02*Y10874D01*
G54D23*G54D24*G54D23*G54D24*G54D25*G54D23*G54D25*G54D24*G54D23*G54D26*G54D23*G54D26*G54D11*G54D26*G54D11*G54D26*G54D11*G54D23*G54D11*G54D23*G54D11*G54D23*G54D11*G54D23*G54D11*G54D26*M02*
